<svg width="65" height="81" viewBox="0 0 65 81" fill="none" xmlns="http://www.w3.org/2000/svg">
<path d="M32.6669 0.800049L11.2402 8.44005L14.4669 36.6534L32.6669 47.2001L50.8669 36.6534L54.0936 8.44005L32.6669 0.800049ZM49.4269 35.6534L32.6669 45.3334L15.9069 35.6534L12.9336 9.68005L32.6669 2.66672L52.4002 9.70671L49.4269 35.6534Z" fill="white"/>
<path d="M32.6667 4L14.1733 10.6667L16.96 35.0133L32.6667 44L48.3733 34.88L51.16 10.5333L32.6667 4ZM40.48 34.1333L37.7467 27.6267H27.5867L24.8533 34.1333H19.6533L32.6667 5.65333L45.68 34.0933L40.48 34.1333Z" fill="white"/>
<path d="M29.0801 24H36.2534L32.6667 15.4534L29.0801 24Z" fill="white"/>
<path d="M8.74 77L8.092 74.318H4.456L3.826 77H0.766L4.528 64.526H8.11L11.872 77H8.74ZM4.96 72.176H7.588L6.274 66.668L4.96 72.176ZM18.3312 67.136C19.1592 67.136 19.8072 67.388 20.2752 67.892C20.7432 68.396 20.9772 69.104 20.9772 70.016V77H18.1332V70.502C18.1332 70.022 18.0552 69.692 17.8992 69.512C17.7552 69.32 17.5332 69.224 17.2332 69.224C16.6572 69.224 16.1052 69.638 15.5772 70.466V77H12.7332V67.442H15.2172L15.4152 68.576C15.8232 68.096 16.2612 67.736 16.7292 67.496C17.2092 67.256 17.7432 67.136 18.3312 67.136ZM31.9239 68C31.2999 68.252 30.3819 68.378 29.1699 68.378C29.7939 68.642 30.2499 68.966 30.5379 69.35C30.8259 69.734 30.9699 70.232 30.9699 70.844C30.9699 71.456 30.8079 72.008 30.4839 72.5C30.1599 72.98 29.6919 73.358 29.0799 73.634C28.4799 73.91 27.7719 74.048 26.9559 74.048C26.5719 74.048 26.2059 74.012 25.8579 73.94C25.7619 73.988 25.6839 74.066 25.6239 74.174C25.5759 74.27 25.5519 74.372 25.5519 74.48C25.5519 74.66 25.6179 74.804 25.7499 74.912C25.8939 75.008 26.1759 75.056 26.5959 75.056H28.0359C28.7679 75.056 29.4099 75.176 29.9619 75.416C30.5139 75.656 30.9399 75.986 31.2399 76.406C31.5399 76.826 31.6899 77.3 31.6899 77.828C31.6899 78.824 31.2579 79.598 30.3939 80.15C29.5419 80.714 28.3059 80.996 26.6859 80.996C25.5219 80.996 24.6039 80.87 23.9319 80.618C23.2599 80.378 22.7859 80.036 22.5099 79.592C22.2459 79.148 22.1139 78.59 22.1139 77.918H24.6699C24.6699 78.206 24.7239 78.434 24.8319 78.602C24.9519 78.77 25.1619 78.896 25.4619 78.98C25.7619 79.064 26.1939 79.106 26.7579 79.106C27.5379 79.106 28.0779 79.01 28.3779 78.818C28.6779 78.638 28.8279 78.374 28.8279 78.026C28.8279 77.738 28.7139 77.51 28.4859 77.342C28.2579 77.174 27.9159 77.09 27.4599 77.09H26.0739C25.0899 77.09 24.3519 76.916 23.8599 76.568C23.3799 76.208 23.1399 75.752 23.1399 75.2C23.1399 74.852 23.2419 74.516 23.4459 74.192C23.6499 73.856 23.9259 73.58 24.2739 73.364C23.6739 73.04 23.2359 72.662 22.9599 72.23C22.6959 71.786 22.5639 71.252 22.5639 70.628C22.5639 69.56 22.9479 68.714 23.7159 68.09C24.4839 67.454 25.4979 67.136 26.7579 67.136C27.7179 67.16 28.5279 67.064 29.1879 66.848C29.8599 66.632 30.5499 66.314 31.2579 65.894L31.9239 68ZM26.8299 69.008C26.3859 69.008 26.0319 69.152 25.7679 69.44C25.5159 69.716 25.3899 70.1 25.3899 70.592C25.3899 71.108 25.5159 71.51 25.7679 71.798C26.0319 72.074 26.3859 72.212 26.8299 72.212C27.2979 72.212 27.6519 72.074 27.8919 71.798C28.1439 71.522 28.2699 71.108 28.2699 70.556C28.2699 69.524 27.7899 69.008 26.8299 69.008ZM40.9241 77H38.4581L38.3321 75.794C37.6361 76.802 36.6701 77.306 35.4341 77.306C34.5581 77.306 33.8921 77.042 33.4361 76.514C32.9921 75.986 32.7701 75.248 32.7701 74.3V67.442H35.6141V73.94C35.6141 74.408 35.6861 74.738 35.8301 74.93C35.9861 75.11 36.2201 75.2 36.5321 75.2C37.1321 75.2 37.6481 74.828 38.0801 74.084V67.442H40.9241V77ZM45.6989 77.306C44.8709 77.306 44.2229 77.072 43.7549 76.604C43.2989 76.124 43.0709 75.446 43.0709 74.57V63.644L45.9149 63.338V74.462C45.9149 74.858 46.0769 75.056 46.4009 75.056C46.5689 75.056 46.7249 75.026 46.8689 74.966L47.4269 76.982C46.9109 77.198 46.3349 77.306 45.6989 77.306ZM56.0128 74.228C56.0128 74.588 56.0608 74.852 56.1568 75.02C56.2648 75.188 56.4328 75.314 56.6608 75.398L56.0668 77.252C55.4788 77.204 54.9988 77.078 54.6268 76.874C54.2548 76.658 53.9668 76.322 53.7628 75.866C53.1388 76.826 52.1788 77.306 50.8828 77.306C49.9348 77.306 49.1788 77.03 48.6148 76.478C48.0508 75.926 47.7688 75.206 47.7688 74.318C47.7688 73.274 48.1528 72.476 48.9208 71.924C49.6888 71.372 50.7988 71.096 52.2508 71.096H53.2228V70.682C53.2228 70.118 53.1028 69.734 52.8628 69.53C52.6228 69.314 52.2028 69.206 51.6028 69.206C51.2908 69.206 50.9128 69.254 50.4688 69.35C50.0248 69.434 49.5688 69.554 49.1008 69.71L48.4528 67.838C49.0528 67.61 49.6648 67.436 50.2888 67.316C50.9248 67.196 51.5128 67.136 52.0528 67.136C53.4208 67.136 54.4228 67.418 55.0588 67.982C55.6948 68.546 56.0128 69.392 56.0128 70.52V74.228ZM51.7108 75.272C52.3588 75.272 52.8628 74.966 53.2228 74.354V72.662H52.5208C51.8728 72.662 51.3868 72.776 51.0628 73.004C50.7508 73.232 50.5948 73.586 50.5948 74.066C50.5948 74.45 50.6908 74.75 50.8828 74.966C51.0868 75.17 51.3628 75.272 51.7108 75.272ZM63.4621 67.172C63.8101 67.172 64.1281 67.214 64.4161 67.298L63.9661 70.052C63.6061 69.968 63.3181 69.926 63.1021 69.926C62.5381 69.926 62.1061 70.124 61.8061 70.52C61.5181 70.904 61.2901 71.486 61.1221 72.266V77H58.2781V67.442H60.7621L60.9961 69.296C61.2121 68.636 61.5361 68.12 61.9681 67.748C62.4121 67.364 62.9101 67.172 63.4621 67.172Z" fill="white"/>
</svg>
