<svg width="82" height="78" viewBox="0 0 82 78" fill="none" xmlns="http://www.w3.org/2000/svg">
<path d="M61 0H21C18.792 0 17 1.79 17 4V44C17 46.21 18.792 48 21 48H61C63.208 48 65 46.21 65 44V4C65 1.79 63.208 0 61 0ZM52.626 33.706V33.71C52.226 34.674 51.592 35.524 50.78 36.178C49.94 36.858 48.876 37.418 47.566 37.818C46.258 38.224 44.702 38.428 42.9 38.428H30.036V10.428H43.64C46.156 10.428 48.172 10.994 49.68 12.148C51.2 13.308 51.956 15.036 51.956 17.368C51.956 18.778 51.612 19.988 50.92 20.988C50.232 21.982 49.24 22.76 47.96 23.3V23.392C49.668 23.752 50.99 24.562 51.86 25.822C52.73 27.082 53.176 28.674 53.176 30.596C53.176 31.672 52.968 32.696 52.576 33.652L52.626 33.706Z" fill="white"/>
<path d="M47.074 26.8101C46.254 26.0601 45.102 25.6941 43.614 25.6941H34.97V34.4301H43.638C45.118 34.4301 46.278 34.0461 47.098 33.2701C47.918 32.5001 48.338 31.4021 48.338 29.9901C48.324 28.6101 47.918 27.5421 47.098 26.8101H47.074ZM45.866 21.1641H45.874C46.666 20.4921 47.054 19.5301 47.054 18.2761C47.054 16.8681 46.704 15.8681 45.994 15.2961C45.29 14.7261 44.274 14.4301 42.938 14.4301H34.938V22.1561H42.938C44.104 22.1561 45.098 21.8161 45.866 21.1641Z" fill="white"/>
<path d="M7.812 67.394C8.64 67.55 9.312 67.856 9.828 68.312C10.356 68.768 10.62 69.452 10.62 70.364C10.62 71.696 10.14 72.638 9.18 73.19C8.232 73.73 6.9 74 5.184 74H1.17V61.526H4.698C6.45 61.526 7.788 61.778 8.712 62.282C9.636 62.774 10.098 63.584 10.098 64.712C10.098 65.444 9.876 66.038 9.432 66.494C9 66.938 8.46 67.238 7.812 67.394ZM4.122 63.614V66.512H5.22C6.468 66.512 7.092 66.008 7.092 65C7.092 64.496 6.924 64.142 6.588 63.938C6.252 63.722 5.718 63.614 4.986 63.614H4.122ZM5.202 71.858C5.982 71.858 6.57 71.744 6.966 71.516C7.374 71.276 7.578 70.838 7.578 70.202C7.578 69.05 6.858 68.474 5.418 68.474H4.122V71.858H5.202ZM16.3654 64.136C17.8294 64.136 18.9754 64.586 19.8034 65.486C20.6314 66.374 21.0454 67.622 21.0454 69.23C21.0454 70.25 20.8534 71.144 20.4694 71.912C20.0974 72.668 19.5574 73.256 18.8494 73.676C18.1534 74.096 17.3254 74.306 16.3654 74.306C14.9134 74.306 13.7674 73.862 12.9274 72.974C12.0994 72.074 11.6854 70.82 11.6854 69.212C11.6854 68.192 11.8714 67.304 12.2434 66.548C12.6274 65.78 13.1674 65.186 13.8634 64.766C14.5714 64.346 15.4054 64.136 16.3654 64.136ZM16.3654 66.224C15.7894 66.224 15.3574 66.47 15.0694 66.962C14.7814 67.442 14.6374 68.192 14.6374 69.212C14.6374 70.256 14.7754 71.018 15.0514 71.498C15.3394 71.978 15.7774 72.218 16.3654 72.218C16.9414 72.218 17.3734 71.978 17.6614 71.498C17.9494 71.006 18.0934 70.25 18.0934 69.23C18.0934 68.186 17.9494 67.424 17.6614 66.944C17.3854 66.464 16.9534 66.224 16.3654 66.224ZM26.8771 64.136C28.3411 64.136 29.4871 64.586 30.3151 65.486C31.1431 66.374 31.5571 67.622 31.5571 69.23C31.5571 70.25 31.3651 71.144 30.9811 71.912C30.6091 72.668 30.0691 73.256 29.3611 73.676C28.6651 74.096 27.8371 74.306 26.8771 74.306C25.4251 74.306 24.2791 73.862 23.4391 72.974C22.6111 72.074 22.1971 70.82 22.1971 69.212C22.1971 68.192 22.3831 67.304 22.7551 66.548C23.1391 65.78 23.6791 65.186 24.3751 64.766C25.0831 64.346 25.9171 64.136 26.8771 64.136ZM26.8771 66.224C26.3011 66.224 25.8691 66.47 25.5811 66.962C25.2931 67.442 25.1491 68.192 25.1491 69.212C25.1491 70.256 25.2871 71.018 25.5631 71.498C25.8511 71.978 26.2891 72.218 26.8771 72.218C27.4531 72.218 27.8851 71.978 28.1731 71.498C28.4611 71.006 28.6051 70.25 28.6051 69.23C28.6051 68.186 28.4611 67.424 28.1731 66.944C27.8971 66.464 27.4651 66.224 26.8771 66.224ZM39.2428 73.55C38.8948 73.79 38.4868 73.976 38.0188 74.108C37.5628 74.24 37.1068 74.306 36.6508 74.306C34.5628 74.294 33.5188 73.142 33.5188 70.85V66.422H32.1688V64.442H33.5188V62.372L36.3628 62.048V64.442H38.5588L38.2528 66.422H36.3628V70.814C36.3628 71.258 36.4348 71.576 36.5788 71.768C36.7228 71.96 36.9508 72.056 37.2628 72.056C37.5868 72.056 37.9288 71.954 38.2888 71.75L39.2428 73.55ZM43.5582 64.136C44.2422 64.136 44.8842 64.238 45.4842 64.442C46.0842 64.646 46.6122 64.934 47.0682 65.306L46.0242 66.908C45.2442 66.416 44.4582 66.17 43.6662 66.17C43.2942 66.17 43.0062 66.236 42.8022 66.368C42.6102 66.488 42.5142 66.662 42.5142 66.89C42.5142 67.07 42.5562 67.22 42.6402 67.34C42.7362 67.448 42.9222 67.562 43.1982 67.682C43.4742 67.802 43.9002 67.946 44.4762 68.114C45.4722 68.402 46.2102 68.78 46.6902 69.248C47.1822 69.704 47.4282 70.34 47.4282 71.156C47.4282 71.804 47.2422 72.368 46.8702 72.848C46.4982 73.316 45.9882 73.676 45.3402 73.928C44.6922 74.18 43.9722 74.306 43.1802 74.306C42.3762 74.306 41.6262 74.18 40.9302 73.928C40.2462 73.676 39.6642 73.328 39.1842 72.884L40.5702 71.336C41.3742 71.96 42.2202 72.272 43.1082 72.272C43.5402 72.272 43.8762 72.194 44.1162 72.038C44.3682 71.882 44.4942 71.66 44.4942 71.372C44.4942 71.144 44.4462 70.964 44.3502 70.832C44.2542 70.7 44.0682 70.58 43.7922 70.472C43.5162 70.352 43.0782 70.208 42.4782 70.04C41.5302 69.764 40.8222 69.38 40.3542 68.888C39.8862 68.396 39.6522 67.784 39.6522 67.052C39.6522 66.5 39.8082 66.008 40.1202 65.576C40.4442 65.132 40.9002 64.784 41.4882 64.532C42.0882 64.268 42.7782 64.136 43.5582 64.136ZM54.8873 73.55C54.5393 73.79 54.1313 73.976 53.6633 74.108C53.2073 74.24 52.7513 74.306 52.2953 74.306C50.2073 74.294 49.1633 73.142 49.1633 70.85V66.422H47.8133V64.442H49.1633V62.372L52.0073 62.048V64.442H54.2033L53.8973 66.422H52.0073V70.814C52.0073 71.258 52.0793 71.576 52.2233 71.768C52.3673 71.96 52.5953 72.056 52.9073 72.056C53.2313 72.056 53.5733 71.954 53.9333 71.75L54.8873 73.55ZM61.0207 64.172C61.3687 64.172 61.6867 64.214 61.9747 64.298L61.5247 67.052C61.1647 66.968 60.8767 66.926 60.6607 66.926C60.0967 66.926 59.6647 67.124 59.3647 67.52C59.0767 67.904 58.8487 68.486 58.6807 69.266V74H55.8367V64.442H58.3207L58.5547 66.296C58.7707 65.636 59.0947 65.12 59.5267 64.748C59.9707 64.364 60.4687 64.172 61.0207 64.172ZM70.0245 71.228C70.0245 71.588 70.0725 71.852 70.1685 72.02C70.2765 72.188 70.4445 72.314 70.6725 72.398L70.0785 74.252C69.4905 74.204 69.0105 74.078 68.6385 73.874C68.2665 73.658 67.9785 73.322 67.7745 72.866C67.1505 73.826 66.1905 74.306 64.8945 74.306C63.9465 74.306 63.1905 74.03 62.6265 73.478C62.0625 72.926 61.7805 72.206 61.7805 71.318C61.7805 70.274 62.1645 69.476 62.9325 68.924C63.7005 68.372 64.8105 68.096 66.2625 68.096H67.2345V67.682C67.2345 67.118 67.1145 66.734 66.8745 66.53C66.6345 66.314 66.2145 66.206 65.6145 66.206C65.3025 66.206 64.9245 66.254 64.4805 66.35C64.0365 66.434 63.5805 66.554 63.1125 66.71L62.4645 64.838C63.0645 64.61 63.6765 64.436 64.3005 64.316C64.9365 64.196 65.5245 64.136 66.0645 64.136C67.4325 64.136 68.4345 64.418 69.0705 64.982C69.7065 65.546 70.0245 66.392 70.0245 67.52V71.228ZM65.7225 72.272C66.3705 72.272 66.8745 71.966 67.2345 71.354V69.662H66.5325C65.8845 69.662 65.3985 69.776 65.0745 70.004C64.7625 70.232 64.6065 70.586 64.6065 71.066C64.6065 71.45 64.7025 71.75 64.8945 71.966C65.0985 72.17 65.3745 72.272 65.7225 72.272ZM77.6898 64.136C78.8898 64.136 79.7838 64.58 80.3718 65.468C80.9598 66.356 81.2538 67.598 81.2538 69.194C81.2538 70.178 81.0978 71.06 80.7858 71.84C80.4858 72.608 80.0478 73.214 79.4718 73.658C78.8958 74.09 78.2238 74.306 77.4558 74.306C76.4958 74.306 75.7218 73.976 75.1338 73.316V77.69L72.2898 77.996V64.442H74.7918L74.9358 65.504C75.3078 65.036 75.7338 64.694 76.2138 64.478C76.6938 64.25 77.1858 64.136 77.6898 64.136ZM76.5918 72.218C77.7318 72.218 78.3018 71.222 78.3018 69.23C78.3018 68.102 78.1758 67.322 77.9238 66.89C77.6718 66.446 77.2938 66.224 76.7898 66.224C76.4658 66.224 76.1598 66.32 75.8718 66.512C75.5958 66.704 75.3498 66.98 75.1338 67.34V71.372C75.5178 71.936 76.0038 72.218 76.5918 72.218Z" fill="white"/>
</svg>
