<svg width="93" height="81" viewBox="0 0 93 81" fill="none" xmlns="http://www.w3.org/2000/svg">
<g clip-path="url(#clip0_479_12)">
<path d="M71.0436 27.6613C71.1261 22.5689 69.9787 16.5132 67.5885 9.4082L65.7145 3.83655L63.1689 9.13452C63.0327 9.41776 62.8773 9.69503 62.7148 9.96872C58.5331 6.37857 53.1072 4.19508 47.1627 4.19508C33.9614 4.19508 23.2603 14.8962 23.2603 28.0975C23.2603 41.2988 33.9614 51.9999 47.1627 51.9999C60.364 51.9999 71.0651 41.2988 71.0651 28.0975C71.0651 27.9505 71.046 27.8083 71.0436 27.6613Z" fill="white"/>
<path d="M65.5494 38.3253C61.817 43.4667 55.2104 43.7428 48.9922 43.634H40.8881H38.5719C43.8639 41.7302 47.013 41.2773 50.2291 39.5706C56.286 36.3856 62.2735 29.4169 63.5201 22.1673C61.2135 29.142 54.2232 35.1343 47.8532 37.5712C43.4886 39.236 35.6056 40.8518 35.6056 40.8518L35.2865 40.6785C29.9204 37.9787 29.7579 25.963 39.5137 22.0836C43.785 20.383 47.8711 21.3175 52.4855 20.1798C57.4118 18.9703 63.1101 15.1507 65.4287 10.1707C68.0245 18.1385 71.1485 30.6144 65.5494 38.3253ZM37.2047 45.361C36.8677 45.7793 36.3526 46.0243 35.8148 46.0243C34.8312 46.0243 34.0281 45.2152 34.0281 44.2316C34.0281 43.248 34.8372 42.4389 35.8148 42.4389C36.2223 42.4389 36.6239 42.5799 36.9394 42.8405C37.7042 43.4608 37.8238 44.5961 37.2047 45.361Z" fill="black"/>
</g>
<path d="M5.184 64.22C6.12 64.22 6.93 64.352 7.614 64.616C8.31 64.88 8.94 65.282 9.504 65.822L8.136 67.424C7.284 66.728 6.372 66.38 5.4 66.38C4.884 66.38 4.476 66.488 4.176 66.704C3.876 66.908 3.726 67.208 3.726 67.604C3.726 67.88 3.792 68.108 3.924 68.288C4.056 68.456 4.29 68.618 4.626 68.774C4.962 68.93 5.466 69.116 6.138 69.332C7.41 69.74 8.346 70.244 8.946 70.844C9.546 71.432 9.846 72.272 9.846 73.364C9.846 74.144 9.648 74.834 9.252 75.434C8.856 76.022 8.286 76.484 7.542 76.82C6.798 77.144 5.916 77.306 4.896 77.306C3.876 77.306 2.97 77.144 2.178 76.82C1.398 76.496 0.726 76.064 0.162 75.524L1.656 73.886C2.136 74.294 2.628 74.6 3.132 74.804C3.648 75.008 4.206 75.11 4.806 75.11C5.418 75.11 5.898 74.978 6.246 74.714C6.606 74.438 6.786 74.06 6.786 73.58C6.786 73.268 6.72 73.01 6.588 72.806C6.456 72.59 6.228 72.398 5.904 72.23C5.58 72.062 5.112 71.882 4.5 71.69C3.12 71.27 2.136 70.754 1.548 70.142C0.972 69.53 0.684 68.756 0.684 67.82C0.684 67.1 0.876 66.47 1.26 65.93C1.644 65.378 2.178 64.958 2.862 64.67C3.546 64.37 4.32 64.22 5.184 64.22ZM16.8168 67.136C18.0168 67.136 18.9108 67.58 19.4988 68.468C20.0868 69.356 20.3808 70.598 20.3808 72.194C20.3808 73.178 20.2248 74.06 19.9128 74.84C19.6128 75.608 19.1748 76.214 18.5988 76.658C18.0228 77.09 17.3508 77.306 16.5828 77.306C15.6228 77.306 14.8488 76.976 14.2608 76.316V80.69L11.4168 80.996V67.442H13.9188L14.0628 68.504C14.4348 68.036 14.8608 67.694 15.3408 67.478C15.8208 67.25 16.3128 67.136 16.8168 67.136ZM15.7188 75.218C16.8588 75.218 17.4288 74.222 17.4288 72.23C17.4288 71.102 17.3028 70.322 17.0508 69.89C16.7988 69.446 16.4208 69.224 15.9168 69.224C15.5928 69.224 15.2868 69.32 14.9988 69.512C14.7228 69.704 14.4768 69.98 14.2608 70.34V74.372C14.6448 74.936 15.1308 75.218 15.7188 75.218ZM27.341 67.172C27.689 67.172 28.007 67.214 28.295 67.298L27.845 70.052C27.485 69.968 27.197 69.926 26.981 69.926C26.417 69.926 25.985 70.124 25.685 70.52C25.397 70.904 25.169 71.486 25.001 72.266V77H22.157V67.442H24.641L24.875 69.296C25.091 68.636 25.415 68.12 25.847 67.748C26.291 67.364 26.789 67.172 27.341 67.172ZM32.2256 67.442V77H29.3816V67.442H32.2256ZM30.7856 62.402C31.2776 62.402 31.6796 62.558 31.9916 62.87C32.3156 63.17 32.4776 63.554 32.4776 64.022C32.4776 64.49 32.3156 64.88 31.9916 65.192C31.6796 65.492 31.2776 65.642 30.7856 65.642C30.2936 65.642 29.8916 65.492 29.5796 65.192C29.2676 64.88 29.1116 64.49 29.1116 64.022C29.1116 63.554 29.2676 63.17 29.5796 62.87C29.8916 62.558 30.2936 62.402 30.7856 62.402ZM40.0597 67.136C40.8877 67.136 41.5357 67.388 42.0037 67.892C42.4717 68.396 42.7057 69.104 42.7057 70.016V77H39.8617V70.502C39.8617 70.022 39.7837 69.692 39.6277 69.512C39.4837 69.32 39.2617 69.224 38.9617 69.224C38.3857 69.224 37.8337 69.638 37.3057 70.466V77H34.4617V67.442H36.9457L37.1437 68.576C37.5517 68.096 37.9897 67.736 38.4577 67.496C38.9377 67.256 39.4717 67.136 40.0597 67.136ZM53.6524 68C53.0284 68.252 52.1104 68.378 50.8984 68.378C51.5224 68.642 51.9784 68.966 52.2664 69.35C52.5544 69.734 52.6984 70.232 52.6984 70.844C52.6984 71.456 52.5364 72.008 52.2124 72.5C51.8884 72.98 51.4204 73.358 50.8084 73.634C50.2084 73.91 49.5004 74.048 48.6844 74.048C48.3004 74.048 47.9344 74.012 47.5864 73.94C47.4904 73.988 47.4124 74.066 47.3524 74.174C47.3044 74.27 47.2804 74.372 47.2804 74.48C47.2804 74.66 47.3464 74.804 47.4784 74.912C47.6224 75.008 47.9044 75.056 48.3244 75.056H49.7644C50.4964 75.056 51.1384 75.176 51.6904 75.416C52.2424 75.656 52.6684 75.986 52.9684 76.406C53.2684 76.826 53.4184 77.3 53.4184 77.828C53.4184 78.824 52.9864 79.598 52.1224 80.15C51.2704 80.714 50.0344 80.996 48.4144 80.996C47.2504 80.996 46.3324 80.87 45.6604 80.618C44.9884 80.378 44.5144 80.036 44.2384 79.592C43.9744 79.148 43.8424 78.59 43.8424 77.918H46.3984C46.3984 78.206 46.4524 78.434 46.5604 78.602C46.6804 78.77 46.8904 78.896 47.1904 78.98C47.4904 79.064 47.9224 79.106 48.4864 79.106C49.2664 79.106 49.8064 79.01 50.1064 78.818C50.4064 78.638 50.5564 78.374 50.5564 78.026C50.5564 77.738 50.4424 77.51 50.2144 77.342C49.9864 77.174 49.6444 77.09 49.1884 77.09H47.8024C46.8184 77.09 46.0804 76.916 45.5884 76.568C45.1084 76.208 44.8684 75.752 44.8684 75.2C44.8684 74.852 44.9704 74.516 45.1744 74.192C45.3784 73.856 45.6544 73.58 46.0024 73.364C45.4024 73.04 44.9644 72.662 44.6884 72.23C44.4244 71.786 44.2924 71.252 44.2924 70.628C44.2924 69.56 44.6764 68.714 45.4444 68.09C46.2124 67.454 47.2264 67.136 48.4864 67.136C49.4464 67.16 50.2564 67.064 50.9164 66.848C51.5884 66.632 52.2784 66.314 52.9864 65.894L53.6524 68ZM48.5584 69.008C48.1144 69.008 47.7604 69.152 47.4964 69.44C47.2444 69.716 47.1184 70.1 47.1184 70.592C47.1184 71.108 47.2444 71.51 47.4964 71.798C47.7604 72.074 48.1144 72.212 48.5584 72.212C49.0264 72.212 49.3804 72.074 49.6204 71.798C49.8724 71.522 49.9984 71.108 49.9984 70.556C49.9984 69.524 49.5184 69.008 48.5584 69.008ZM61.4604 70.394C62.2884 70.55 62.9604 70.856 63.4764 71.312C64.0044 71.768 64.2684 72.452 64.2684 73.364C64.2684 74.696 63.7884 75.638 62.8284 76.19C61.8804 76.73 60.5484 77 58.8324 77H54.8184V64.526H58.3464C60.0984 64.526 61.4364 64.778 62.3604 65.282C63.2844 65.774 63.7464 66.584 63.7464 67.712C63.7464 68.444 63.5244 69.038 63.0804 69.494C62.6484 69.938 62.1084 70.238 61.4604 70.394ZM57.7704 66.614V69.512H58.8684C60.1164 69.512 60.7404 69.008 60.7404 68C60.7404 67.496 60.5724 67.142 60.2364 66.938C59.9004 66.722 59.3664 66.614 58.6344 66.614H57.7704ZM58.8504 74.858C59.6304 74.858 60.2184 74.744 60.6144 74.516C61.0224 74.276 61.2264 73.838 61.2264 73.202C61.2264 72.05 60.5064 71.474 59.0664 71.474H57.7704V74.858H58.8504ZM70.0138 67.136C71.4778 67.136 72.6238 67.586 73.4518 68.486C74.2798 69.374 74.6938 70.622 74.6938 72.23C74.6938 73.25 74.5018 74.144 74.1178 74.912C73.7458 75.668 73.2058 76.256 72.4978 76.676C71.8018 77.096 70.9738 77.306 70.0138 77.306C68.5618 77.306 67.4158 76.862 66.5758 75.974C65.7478 75.074 65.3338 73.82 65.3338 72.212C65.3338 71.192 65.5198 70.304 65.8918 69.548C66.2758 68.78 66.8158 68.186 67.5118 67.766C68.2198 67.346 69.0538 67.136 70.0138 67.136ZM70.0138 69.224C69.4378 69.224 69.0058 69.47 68.7178 69.962C68.4298 70.442 68.2858 71.192 68.2858 72.212C68.2858 73.256 68.4238 74.018 68.6998 74.498C68.9878 74.978 69.4258 75.218 70.0138 75.218C70.5898 75.218 71.0218 74.978 71.3098 74.498C71.5978 74.006 71.7418 73.25 71.7418 72.23C71.7418 71.186 71.5978 70.424 71.3098 69.944C71.0338 69.464 70.6018 69.224 70.0138 69.224ZM80.5255 67.136C81.9895 67.136 83.1355 67.586 83.9635 68.486C84.7915 69.374 85.2055 70.622 85.2055 72.23C85.2055 73.25 85.0135 74.144 84.6295 74.912C84.2575 75.668 83.7175 76.256 83.0095 76.676C82.3135 77.096 81.4855 77.306 80.5255 77.306C79.0735 77.306 77.9275 76.862 77.0875 75.974C76.2595 75.074 75.8455 73.82 75.8455 72.212C75.8455 71.192 76.0315 70.304 76.4035 69.548C76.7875 68.78 77.3275 68.186 78.0235 67.766C78.7315 67.346 79.5655 67.136 80.5255 67.136ZM80.5255 69.224C79.9495 69.224 79.5175 69.47 79.2295 69.962C78.9415 70.442 78.7975 71.192 78.7975 72.212C78.7975 73.256 78.9355 74.018 79.2115 74.498C79.4995 74.978 79.9375 75.218 80.5255 75.218C81.1015 75.218 81.5335 74.978 81.8215 74.498C82.1095 74.006 82.2535 73.25 82.2535 72.23C82.2535 71.186 82.1095 70.424 81.8215 69.944C81.5455 69.464 81.1135 69.224 80.5255 69.224ZM92.8913 76.55C92.5433 76.79 92.1353 76.976 91.6673 77.108C91.2113 77.24 90.7553 77.306 90.2993 77.306C88.2113 77.294 87.1673 76.142 87.1673 73.85V69.422H85.8173V67.442H87.1673V65.372L90.0113 65.048V67.442H92.2073L91.9013 69.422H90.0113V73.814C90.0113 74.258 90.0833 74.576 90.2273 74.768C90.3713 74.96 90.5993 75.056 90.9113 75.056C91.2353 75.056 91.5773 74.954 91.9373 74.75L92.8913 76.55Z" fill="white"/>
<defs>
<clipPath id="clip0_479_12">
<rect width="47.8049" height="49" fill="white" transform="translate(23.2603 3)"/>
</clipPath>
</defs>
</svg>
