<svg width="57" height="78" viewBox="0 0 57 78" fill="none" xmlns="http://www.w3.org/2000/svg">
<path d="M1.10986 0.882202L6.23986 50.4043L28.7399 56.1179L50.7299 50.4043L55.8899 0.882202H1.10986ZM44.6099 17.2493H18.7349L19.0799 23.0715H43.7099L42.0749 42.8043L27.8849 46.1429L13.9499 42.4922L12.7799 32.8836L20.1299 32.9922L20.3549 37.0636L27.8549 39.4929L35.6249 37.2808L36.1199 29.8572L12.5399 29.4365L11.1449 11.2779H44.6399L44.6099 17.2493Z" fill="white"/>
<path d="M13.866 78V72.654H10.122V78H7.17V65.526H10.122V70.35H13.866V65.526H16.818V78H13.866ZM27.6903 65.526L27.4023 67.794H24.3243V78H21.3723V67.794H18.1503V65.526H27.6903ZM40.9114 78H38.0134L37.7974 73.122C37.7374 71.958 37.7074 70.92 37.7074 70.008C37.7074 69.312 37.7254 68.652 37.7614 68.028L35.8354 76.686H33.0454L30.9934 68.028C31.0654 69.072 31.1014 70.056 31.1014 70.98C31.1014 71.676 31.0834 72.402 31.0474 73.158L30.8314 78H27.9514L28.8874 65.526H32.6134L34.4854 73.986L36.2314 65.526H39.9754L40.9114 78ZM45.6298 65.526V75.66H50.4898L50.1838 78H42.6778V65.526H45.6298Z" fill="white"/>
</svg>
