<svg width="48" height="83" viewBox="0 0 48 83" fill="none" xmlns="http://www.w3.org/2000/svg">
<g clip-path="url(#clip0_479_24)">
<path d="M27.7557 0C30.9957 7.15869 16.1396 11.5796 14.7589 17.543C13.4932 23.0229 23.586 29.3906 23.5952 29.3906C22.0627 27.123 20.9351 25.2554 19.398 21.7266C16.7977 15.7588 35.2344 10.3579 27.7557 0ZM37.623 9.91406C37.623 9.91406 24.5893 10.7139 23.9266 18.668C23.6321 22.21 27.3553 24.0732 27.4611 26.6484C27.5486 28.7534 25.2521 30.5156 25.2521 30.5156C25.2521 30.5156 29.4309 29.7554 30.738 26.543C32.1877 22.979 27.9122 20.5708 28.3448 17.7187C28.759 14.9897 37.623 9.91406 37.623 9.91406ZM17.1521 28.3008C17.1521 28.3008 5.22296 28.1382 5.22296 31.3594C5.22296 34.7256 20.8385 34.9761 31.9898 32.9062C31.9898 32.9062 34.9536 30.9595 35.7452 30.2344C28.4368 31.6582 11.7766 31.8164 11.7766 30.5859C11.7766 29.4521 17.1521 28.3008 17.1521 28.3008ZM40.0898 28.3008C38.9208 28.3887 37.6598 28.8193 36.5184 29.6016C39.2061 29.0478 41.4889 30.6387 41.4889 32.4492C41.4889 36.5273 35.3034 40.3594 35.3034 40.3594C35.3034 40.3594 44.8761 39.3223 44.8761 32.625C44.8761 29.584 42.6625 28.1074 40.0898 28.3008ZM14.2802 34.5586C12.4485 34.5586 9.71478 35.9297 9.71478 37.2305C9.71478 39.8452 23.4848 41.8579 33.6834 38.0391L30.1489 35.9648C23.2363 38.0786 10.5064 37.3887 14.2802 34.5586ZM15.9739 40.4297C13.4656 40.4297 11.8134 41.8755 11.8134 42.9609C11.8134 46.3183 26.7938 46.6567 32.7261 43.2422L28.9707 40.957C24.5387 42.7456 13.415 43.0181 15.9739 40.4297ZM7.61615 43.4531C3.52933 43.374 0.878418 45.1274 0.878418 46.582C0.878418 54.3164 42.7039 53.9604 42.7039 46.0547C42.7039 44.7407 41.1161 44.1035 40.5316 43.8047C43.9511 51.3633 6.29069 50.7612 6.29069 46.3008C6.29069 45.2856 9.06126 44.3144 11.6293 44.7891L9.45705 43.5937C8.81734 43.5015 8.20063 43.4663 7.61615 43.4531ZM47.1221 48.6562C40.7617 54.4131 24.6446 56.5005 8.42615 52.9453C24.64 59.2822 47.0438 55.727 47.1221 48.6562Z" fill="white"/>
</g>
<path d="M10.608 75.11C10.608 76.106 10.428 76.928 10.068 77.576C9.72 78.224 9.252 78.728 8.664 79.088C8.088 79.46 7.398 79.778 6.594 80.042L5.802 77.954C6.33 77.75 6.726 77.516 6.99 77.252C7.254 76.988 7.428 76.682 7.512 76.334C7.608 75.986 7.656 75.542 7.656 75.002V64.526H10.608V75.11ZM20.4249 74.228C20.4249 74.588 20.4729 74.852 20.5689 75.02C20.6769 75.188 20.8449 75.314 21.0729 75.398L20.4789 77.252C19.8909 77.204 19.4109 77.078 19.0389 76.874C18.6669 76.658 18.3789 76.322 18.1749 75.866C17.5509 76.826 16.5909 77.306 15.2949 77.306C14.3469 77.306 13.5909 77.03 13.0269 76.478C12.4629 75.926 12.1809 75.206 12.1809 74.318C12.1809 73.274 12.5649 72.476 13.3329 71.924C14.1009 71.372 15.2109 71.096 16.6629 71.096H17.6349V70.682C17.6349 70.118 17.5149 69.734 17.2749 69.53C17.0349 69.314 16.6149 69.206 16.0149 69.206C15.7029 69.206 15.3249 69.254 14.8809 69.35C14.4369 69.434 13.9809 69.554 13.5129 69.71L12.8649 67.838C13.4649 67.61 14.0769 67.436 14.7009 67.316C15.3369 67.196 15.9249 67.136 16.4649 67.136C17.8329 67.136 18.8349 67.418 19.4709 67.982C20.1069 68.546 20.4249 69.392 20.4249 70.52V74.228ZM16.1229 75.272C16.7709 75.272 17.2749 74.966 17.6349 74.354V72.662H16.9329C16.2849 72.662 15.7989 72.776 15.4749 73.004C15.1629 73.232 15.0069 73.586 15.0069 74.066C15.0069 74.45 15.1029 74.75 15.2949 74.966C15.4989 75.17 15.7749 75.272 16.1229 75.272ZM30.6525 67.442L27.6465 77H24.2805L21.2025 67.442H24.2985L25.9905 74.84L27.7545 67.442H30.6525ZM38.8468 74.228C38.8468 74.588 38.8948 74.852 38.9908 75.02C39.0988 75.188 39.2668 75.314 39.4948 75.398L38.9008 77.252C38.3128 77.204 37.8328 77.078 37.4608 76.874C37.0888 76.658 36.8008 76.322 36.5968 75.866C35.9728 76.826 35.0128 77.306 33.7168 77.306C32.7688 77.306 32.0128 77.03 31.4488 76.478C30.8848 75.926 30.6028 75.206 30.6028 74.318C30.6028 73.274 30.9868 72.476 31.7548 71.924C32.5228 71.372 33.6328 71.096 35.0848 71.096H36.0568V70.682C36.0568 70.118 35.9368 69.734 35.6968 69.53C35.4568 69.314 35.0368 69.206 34.4368 69.206C34.1248 69.206 33.7468 69.254 33.3028 69.35C32.8588 69.434 32.4028 69.554 31.9348 69.71L31.2868 67.838C31.8868 67.61 32.4988 67.436 33.1228 67.316C33.7588 67.196 34.3468 67.136 34.8868 67.136C36.2548 67.136 37.2568 67.418 37.8928 67.982C38.5288 68.546 38.8468 69.392 38.8468 70.52V74.228ZM34.5448 75.272C35.1928 75.272 35.6968 74.966 36.0568 74.354V72.662H35.3548C34.7068 72.662 34.2208 72.776 33.8968 73.004C33.5848 73.232 33.4288 73.586 33.4288 74.066C33.4288 74.45 33.5248 74.75 33.7168 74.966C33.9208 75.17 34.1968 75.272 34.5448 75.272Z" fill="white"/>
<defs>
<clipPath id="clip0_479_24">
<rect width="48" height="57" fill="white"/>
</clipPath>
</defs>
</svg>
