<svg width="89" height="82" viewBox="0 0 89 82" fill="none" xmlns="http://www.w3.org/2000/svg">
<path d="M9.702 65.526L9.414 67.794H6.336V78H3.384V67.794H0.162V65.526H9.702ZM15.39 78.018C15.006 79.254 14.376 80.202 13.5 80.862C12.636 81.534 11.472 81.912 10.008 81.996L9.702 79.998C10.614 79.878 11.286 79.674 11.718 79.386C12.162 79.098 12.516 78.636 12.78 78H11.808L8.892 68.442H11.916L13.626 76.182L15.498 68.442H18.432L15.39 78.018ZM24.8324 68.136C26.0324 68.136 26.9264 68.58 27.5144 69.468C28.1024 70.356 28.3964 71.598 28.3964 73.194C28.3964 74.178 28.2404 75.06 27.9284 75.84C27.6284 76.608 27.1904 77.214 26.6144 77.658C26.0384 78.09 25.3664 78.306 24.5984 78.306C23.6384 78.306 22.8644 77.976 22.2764 77.316V81.69L19.4324 81.996V68.442H21.9344L22.0784 69.504C22.4504 69.036 22.8764 68.694 23.3564 68.478C23.8364 68.25 24.3284 68.136 24.8324 68.136ZM23.7344 76.218C24.8744 76.218 25.4444 75.222 25.4444 73.23C25.4444 72.102 25.3184 71.322 25.0664 70.89C24.8144 70.446 24.4364 70.224 23.9324 70.224C23.6084 70.224 23.3024 70.32 23.0144 70.512C22.7384 70.704 22.4924 70.98 22.2764 71.34V75.372C22.6604 75.936 23.1464 76.218 23.7344 76.218ZM38.5066 73.032C38.5066 73.428 38.4886 73.77 38.4526 74.058H32.5306C32.6266 74.862 32.8546 75.426 33.2146 75.75C33.5746 76.074 34.0726 76.236 34.7086 76.236C35.0926 76.236 35.4646 76.17 35.8246 76.038C36.1846 75.894 36.5746 75.678 36.9946 75.39L38.1646 76.974C37.0486 77.862 35.8066 78.306 34.4386 78.306C32.8906 78.306 31.7026 77.85 30.8746 76.938C30.0466 76.026 29.6326 74.802 29.6326 73.266C29.6326 72.294 29.8066 71.424 30.1546 70.656C30.5026 69.876 31.0126 69.264 31.6846 68.82C32.3566 68.364 33.1606 68.136 34.0966 68.136C35.4766 68.136 36.5566 68.568 37.3366 69.432C38.1166 70.296 38.5066 71.496 38.5066 73.032ZM35.7166 72.222C35.6926 70.758 35.1766 70.026 34.1686 70.026C33.6766 70.026 33.2926 70.206 33.0166 70.566C32.7526 70.926 32.5906 71.52 32.5306 72.348H35.7166V72.222ZM44.1723 65.22C45.1083 65.22 45.9183 65.352 46.6023 65.616C47.2983 65.88 47.9283 66.282 48.4923 66.822L47.1243 68.424C46.2723 67.728 45.3603 67.38 44.3883 67.38C43.8723 67.38 43.4643 67.488 43.1643 67.704C42.8643 67.908 42.7143 68.208 42.7143 68.604C42.7143 68.88 42.7803 69.108 42.9123 69.288C43.0443 69.456 43.2783 69.618 43.6143 69.774C43.9503 69.93 44.4543 70.116 45.1263 70.332C46.3983 70.74 47.3343 71.244 47.9343 71.844C48.5343 72.432 48.8343 73.272 48.8343 74.364C48.8343 75.144 48.6363 75.834 48.2403 76.434C47.8443 77.022 47.2743 77.484 46.5303 77.82C45.7863 78.144 44.9043 78.306 43.8843 78.306C42.8643 78.306 41.9583 78.144 41.1663 77.82C40.3863 77.496 39.7143 77.064 39.1503 76.524L40.6443 74.886C41.1243 75.294 41.6163 75.6 42.1203 75.804C42.6363 76.008 43.1943 76.11 43.7943 76.11C44.4063 76.11 44.8863 75.978 45.2343 75.714C45.5943 75.438 45.7743 75.06 45.7743 74.58C45.7743 74.268 45.7083 74.01 45.5763 73.806C45.4443 73.59 45.2163 73.398 44.8923 73.23C44.5683 73.062 44.1003 72.882 43.4883 72.69C42.1083 72.27 41.1243 71.754 40.5363 71.142C39.9603 70.53 39.6723 69.756 39.6723 68.82C39.6723 68.1 39.8643 67.47 40.2483 66.93C40.6323 66.378 41.1663 65.958 41.8503 65.67C42.5343 65.37 43.3083 65.22 44.1723 65.22ZM54.5451 68.136C55.2051 68.136 55.7991 68.232 56.3271 68.424C56.8551 68.616 57.3531 68.91 57.8211 69.306L56.5971 70.998C55.9971 70.542 55.3911 70.314 54.7791 70.314C54.1431 70.314 53.6631 70.548 53.3391 71.016C53.0151 71.484 52.8531 72.24 52.8531 73.284C52.8531 74.292 53.0151 75.006 53.3391 75.426C53.6631 75.846 54.1311 76.056 54.7431 76.056C55.0671 76.056 55.3611 76.008 55.6251 75.912C55.8891 75.804 56.2071 75.636 56.5791 75.408L57.8211 77.172C56.8731 77.928 55.7991 78.306 54.5991 78.306C53.6271 78.306 52.7871 78.102 52.0791 77.694C51.3711 77.274 50.8251 76.692 50.4411 75.948C50.0571 75.192 49.8651 74.31 49.8651 73.302C49.8651 72.294 50.0571 71.4 50.4411 70.62C50.8251 69.84 51.3711 69.234 52.0791 68.802C52.7871 68.358 53.6091 68.136 54.5451 68.136ZM64.2023 68.172C64.5503 68.172 64.8683 68.214 65.1563 68.298L64.7063 71.052C64.3463 70.968 64.0583 70.926 63.8423 70.926C63.2783 70.926 62.8463 71.124 62.5463 71.52C62.2583 71.904 62.0303 72.486 61.8623 73.266V78H59.0183V68.442H61.5023L61.7363 70.296C61.9523 69.636 62.2763 69.12 62.7083 68.748C63.1523 68.364 63.6503 68.172 64.2023 68.172ZM69.087 68.442V78H66.243V68.442H69.087ZM67.647 63.402C68.139 63.402 68.541 63.558 68.853 63.87C69.177 64.17 69.339 64.554 69.339 65.022C69.339 65.49 69.177 65.88 68.853 66.192C68.541 66.492 68.139 66.642 67.647 66.642C67.155 66.642 66.753 66.492 66.441 66.192C66.129 65.88 65.973 65.49 65.973 65.022C65.973 64.554 66.129 64.17 66.441 63.87C66.753 63.558 67.155 63.402 67.647 63.402ZM76.723 68.136C77.923 68.136 78.817 68.58 79.405 69.468C79.993 70.356 80.287 71.598 80.287 73.194C80.287 74.178 80.131 75.06 79.819 75.84C79.519 76.608 79.081 77.214 78.505 77.658C77.929 78.09 77.257 78.306 76.489 78.306C75.529 78.306 74.755 77.976 74.167 77.316V81.69L71.323 81.996V68.442H73.825L73.969 69.504C74.341 69.036 74.767 68.694 75.247 68.478C75.727 68.25 76.219 68.136 76.723 68.136ZM75.625 76.218C76.765 76.218 77.335 75.222 77.335 73.23C77.335 72.102 77.209 71.322 76.957 70.89C76.705 70.446 76.327 70.224 75.823 70.224C75.499 70.224 75.193 70.32 74.905 70.512C74.629 70.704 74.383 70.98 74.167 71.34V75.372C74.551 75.936 75.037 76.218 75.625 76.218ZM88.0573 77.55C87.7093 77.79 87.3013 77.976 86.8333 78.108C86.3773 78.24 85.9213 78.306 85.4653 78.306C83.3773 78.294 82.3333 77.142 82.3333 74.85V70.422H80.9833V68.442H82.3333V66.372L85.1773 66.048V68.442H87.3733L87.0673 70.422H85.1773V74.814C85.1773 75.258 85.2493 75.576 85.3933 75.768C85.5373 75.96 85.7653 76.056 86.0773 76.056C86.4013 76.056 86.7433 75.954 87.1033 75.75L88.0573 77.55Z" fill="white"/>
<g clip-path="url(#clip0_479_7)">
<path d="M66.6219 2.91089H22.026C21.4095 2.91089 20.9111 3.41036 20.9111 4.02578V48.6216C20.9111 49.237 21.4095 49.7365 22.026 49.7365H66.6219C67.2384 49.7365 67.7368 49.237 67.7368 48.6216V4.02578C67.7368 3.41036 67.2384 2.91089 66.6219 2.91089ZM48.7835 27.9347H43.209V45.2769H38.7495V27.9347H33.175V24.0939H48.7835V27.9347ZM50.0333 44.2869V39.6512C50.0333 39.6512 52.5653 41.5599 55.6033 41.5599C58.6414 41.5599 58.5244 39.5731 58.5244 39.3011C58.5244 36.418 49.9163 36.418 49.9163 30.0307C49.9163 21.3446 62.4588 24.7718 62.4588 24.7718L62.3028 28.9013C62.3028 28.9013 60.199 27.4988 57.8231 27.4988C55.4473 27.4988 54.5899 28.6282 54.5899 29.8356C54.5899 32.9518 63.2761 32.6407 63.2761 38.912C63.2772 48.5714 50.0333 44.2869 50.0333 44.2869Z" fill="white"/>
</g>
<defs>
<clipPath id="clip0_479_7">
<rect width="49" height="49" fill="white" transform="translate(18)"/>
</clipPath>
</defs>
</svg>
