<svg width="97" height="82" viewBox="0 0 97 82" fill="none" xmlns="http://www.w3.org/2000/svg">
<path d="M49 48C35.748 48 25 43.971 25 39V33.936C25 38.91 35.748 42 49 42C62.252 42 73 38.91 73 33.936V39C73 43.971 62.252 48 49 48ZM49 39C35.748 39 25 34.971 25 30V24.936C25 29.91 35.748 33 49 33C62.252 33 73 29.91 73 24.936V30C73 34.971 62.252 39 49 39ZM49 30C35.748 30 25 25.971 25 21V15.936C25 20.91 35.748 24 49 24C62.252 24 73 20.91 73 15.936V21C73 25.971 62.252 30 49 30ZM49 21C35.748 21 25 16.971 25 12V9C25 4.029 35.748 0 49 0C62.252 0 73 4.029 73 9V12C73 16.971 62.252 21 49 21Z" fill="white"/>
<path d="M5.184 65.22C6.12 65.22 6.93 65.352 7.614 65.616C8.31 65.88 8.94 66.282 9.504 66.822L8.136 68.424C7.284 67.728 6.372 67.38 5.4 67.38C4.884 67.38 4.476 67.488 4.176 67.704C3.876 67.908 3.726 68.208 3.726 68.604C3.726 68.88 3.792 69.108 3.924 69.288C4.056 69.456 4.29 69.618 4.626 69.774C4.962 69.93 5.466 70.116 6.138 70.332C7.41 70.74 8.346 71.244 8.946 71.844C9.546 72.432 9.846 73.272 9.846 74.364C9.846 75.144 9.648 75.834 9.252 76.434C8.856 77.022 8.286 77.484 7.542 77.82C6.798 78.144 5.916 78.306 4.896 78.306C3.876 78.306 2.97 78.144 2.178 77.82C1.398 77.496 0.726 77.064 0.162 76.524L1.656 74.886C2.136 75.294 2.628 75.6 3.132 75.804C3.648 76.008 4.206 76.11 4.806 76.11C5.418 76.11 5.898 75.978 6.246 75.714C6.606 75.438 6.786 75.06 6.786 74.58C6.786 74.268 6.72 74.01 6.588 73.806C6.456 73.59 6.228 73.398 5.904 73.23C5.58 73.062 5.112 72.882 4.5 72.69C3.12 72.27 2.136 71.754 1.548 71.142C0.972 70.53 0.684 69.756 0.684 68.82C0.684 68.1 0.876 67.47 1.26 66.93C1.644 66.378 2.178 65.958 2.862 65.67C3.546 65.37 4.32 65.22 5.184 65.22ZM19.2108 77.19C19.9908 77.19 20.6688 77.286 21.2448 77.478C21.8208 77.658 22.3728 77.94 22.9008 78.324L21.1188 80.646C20.4348 79.878 19.7328 79.284 19.0128 78.864C18.2928 78.456 17.3988 78.252 16.3308 78.252C15.2148 78.252 14.2488 78 13.4328 77.496C12.6168 76.98 11.9868 76.236 11.5428 75.264C11.1108 74.292 10.8948 73.122 10.8948 71.754C10.8948 70.41 11.1168 69.246 11.5608 68.262C12.0168 67.278 12.6648 66.528 13.5048 66.012C14.3448 65.484 15.3468 65.22 16.5108 65.22C18.2868 65.22 19.6668 65.79 20.6508 66.93C21.6468 68.07 22.1448 69.678 22.1448 71.754C22.1448 74.298 21.1668 76.11 19.2108 77.19ZM13.9908 71.754C13.9908 73.29 14.2008 74.406 14.6208 75.102C15.0408 75.798 15.6708 76.146 16.5108 76.146C17.3748 76.146 18.0108 75.804 18.4188 75.12C18.8388 74.424 19.0488 73.302 19.0488 71.754C19.0488 70.206 18.8388 69.09 18.4188 68.406C17.9988 67.722 17.3628 67.38 16.5108 67.38C15.6588 67.38 15.0228 67.728 14.6028 68.424C14.1948 69.108 13.9908 70.218 13.9908 71.754ZM26.8505 65.526V75.66H31.7105L31.4045 78H23.8985V65.526H26.8505ZM37.1675 63.312L39.6515 63.87L35.4215 80.016L32.9195 79.44L37.1675 63.312ZM54.511 78H51.613L51.397 73.122C51.337 71.958 51.307 70.92 51.307 70.008C51.307 69.312 51.325 68.652 51.361 68.028L49.435 76.686H46.645L44.593 68.028C44.665 69.072 44.701 70.056 44.701 70.98C44.701 71.676 44.683 72.402 44.647 73.158L44.431 78H41.551L42.487 65.526H46.213L48.085 73.986L49.831 65.526H53.575L54.511 78ZM61.4974 78.018C61.1134 79.254 60.4834 80.202 59.6074 80.862C58.7434 81.534 57.5794 81.912 56.1154 81.996L55.8094 79.998C56.7214 79.878 57.3934 79.674 57.8254 79.386C58.2694 79.098 58.6234 78.636 58.8874 78H57.9154L54.9994 68.442H58.0234L59.7334 76.182L61.6054 68.442H64.5394L61.4974 78.018ZM69.6078 65.22C70.5438 65.22 71.3538 65.352 72.0378 65.616C72.7338 65.88 73.3638 66.282 73.9278 66.822L72.5598 68.424C71.7078 67.728 70.7958 67.38 69.8238 67.38C69.3078 67.38 68.8998 67.488 68.5998 67.704C68.2998 67.908 68.1498 68.208 68.1498 68.604C68.1498 68.88 68.2158 69.108 68.3478 69.288C68.4798 69.456 68.7138 69.618 69.0498 69.774C69.3858 69.93 69.8898 70.116 70.5618 70.332C71.8338 70.74 72.7698 71.244 73.3698 71.844C73.9698 72.432 74.2698 73.272 74.2698 74.364C74.2698 75.144 74.0718 75.834 73.6758 76.434C73.2798 77.022 72.7098 77.484 71.9658 77.82C71.2218 78.144 70.3398 78.306 69.3198 78.306C68.2998 78.306 67.3938 78.144 66.6018 77.82C65.8218 77.496 65.1498 77.064 64.5858 76.524L66.0798 74.886C66.5598 75.294 67.0518 75.6 67.5558 75.804C68.0718 76.008 68.6298 76.11 69.2298 76.11C69.8418 76.11 70.3218 75.978 70.6698 75.714C71.0298 75.438 71.2098 75.06 71.2098 74.58C71.2098 74.268 71.1438 74.01 71.0118 73.806C70.8798 73.59 70.6518 73.398 70.3278 73.23C70.0038 73.062 69.5358 72.882 68.9238 72.69C67.5438 72.27 66.5598 71.754 65.9718 71.142C65.3958 70.53 65.1078 69.756 65.1078 68.82C65.1078 68.1 65.2998 67.47 65.6838 66.93C66.0678 66.378 66.6018 65.958 67.2858 65.67C67.9698 65.37 68.7438 65.22 69.6078 65.22ZM83.6346 77.19C84.4146 77.19 85.0926 77.286 85.6686 77.478C86.2446 77.658 86.7966 77.94 87.3246 78.324L85.5426 80.646C84.8586 79.878 84.1566 79.284 83.4366 78.864C82.7166 78.456 81.8226 78.252 80.7546 78.252C79.6386 78.252 78.6726 78 77.8566 77.496C77.0406 76.98 76.4106 76.236 75.9666 75.264C75.5346 74.292 75.3186 73.122 75.3186 71.754C75.3186 70.41 75.5406 69.246 75.9846 68.262C76.4406 67.278 77.0886 66.528 77.9286 66.012C78.7686 65.484 79.7706 65.22 80.9346 65.22C82.7106 65.22 84.0906 65.79 85.0746 66.93C86.0706 68.07 86.5686 69.678 86.5686 71.754C86.5686 74.298 85.5906 76.11 83.6346 77.19ZM78.4146 71.754C78.4146 73.29 78.6246 74.406 79.0446 75.102C79.4646 75.798 80.0946 76.146 80.9346 76.146C81.7986 76.146 82.4346 75.804 82.8426 75.12C83.2626 74.424 83.4726 73.302 83.4726 71.754C83.4726 70.206 83.2626 69.09 82.8426 68.406C82.4226 67.722 81.7866 67.38 80.9346 67.38C80.0826 67.38 79.4466 67.728 79.0266 68.424C78.6186 69.108 78.4146 70.218 78.4146 71.754ZM91.2743 65.526V75.66H96.1343L95.8283 78H88.3223V65.526H91.2743Z" fill="white"/>
</svg>
