<svg width="56" height="77" viewBox="0 0 56 77" fill="none" xmlns="http://www.w3.org/2000/svg">
<path d="M52.5649 50.8796L57.7573 0H0L0.0678571 0.66025L5.18429 50.8868L5.22771 51.3047L28.6601 57H29.0293L52.516 51.3L52.5594 50.882L52.5649 50.8796ZM28.9289 11.1126H45.7113L45.2064 16.2426L28.6493 22.6836L28.9261 23.8426H44.4627L42.674 41.7763L28.8691 45.125L15.0697 41.781L14.2011 33.193H19.8821L20.3381 37.5464L20.3816 37.9691L28.7551 39.9166H29.1161L37.3974 37.9026L37.4381 37.4822L38.2199 29.4405L38.2823 28.785H13.7261L13.2104 23.6241L30.3349 17.2092L30.0634 16.0455H12.4749L11.9727 11.1055H28.9099L28.9289 11.1126Z" fill="white"/>
<path d="M19.264 64.22C20.044 64.22 20.734 64.334 21.334 64.562C21.946 64.79 22.522 65.132 23.062 65.588L21.658 67.262C21.286 66.974 20.92 66.758 20.56 66.614C20.2 66.47 19.816 66.398 19.408 66.398C18.568 66.398 17.902 66.752 17.41 67.46C16.93 68.168 16.69 69.26 16.69 70.736C16.69 72.188 16.93 73.268 17.41 73.976C17.902 74.672 18.58 75.02 19.444 75.02C19.9 75.02 20.314 74.936 20.686 74.768C21.058 74.588 21.46 74.336 21.892 74.012L23.206 75.704C22.738 76.172 22.168 76.556 21.496 76.856C20.836 77.156 20.104 77.306 19.3 77.306C18.148 77.306 17.146 77.054 16.294 76.55C15.442 76.046 14.776 75.302 14.296 74.318C13.828 73.322 13.594 72.128 13.594 70.736C13.594 69.38 13.834 68.21 14.314 67.226C14.806 66.242 15.478 65.498 16.33 64.994C17.194 64.478 18.172 64.22 19.264 64.22ZM28.3617 64.22C29.2977 64.22 30.1077 64.352 30.7917 64.616C31.4877 64.88 32.1177 65.282 32.6817 65.822L31.3137 67.424C30.4617 66.728 29.5497 66.38 28.5777 66.38C28.0617 66.38 27.6537 66.488 27.3537 66.704C27.0537 66.908 26.9037 67.208 26.9037 67.604C26.9037 67.88 26.9697 68.108 27.1017 68.288C27.2337 68.456 27.4677 68.618 27.8037 68.774C28.1397 68.93 28.6437 69.116 29.3157 69.332C30.5877 69.74 31.5237 70.244 32.1237 70.844C32.7237 71.432 33.0237 72.272 33.0237 73.364C33.0237 74.144 32.8257 74.834 32.4297 75.434C32.0337 76.022 31.4637 76.484 30.7197 76.82C29.9757 77.144 29.0937 77.306 28.0737 77.306C27.0537 77.306 26.1477 77.144 25.3557 76.82C24.5757 76.496 23.9037 76.064 23.3397 75.524L24.8337 73.886C25.3137 74.294 25.8057 74.6 26.3097 74.804C26.8257 75.008 27.3837 75.11 27.9837 75.11C28.5957 75.11 29.0757 74.978 29.4237 74.714C29.7837 74.438 29.9637 74.06 29.9637 73.58C29.9637 73.268 29.8977 73.01 29.7657 72.806C29.6337 72.59 29.4057 72.398 29.0817 72.23C28.7577 72.062 28.2897 71.882 27.6777 71.69C26.2977 71.27 25.3137 70.754 24.7257 70.142C24.1497 69.53 23.8617 68.756 23.8617 67.82C23.8617 67.1 24.0537 66.47 24.4377 65.93C24.8217 65.378 25.3557 64.958 26.0397 64.67C26.7237 64.37 27.4977 64.22 28.3617 64.22ZM38.4692 64.22C39.4052 64.22 40.2152 64.352 40.8992 64.616C41.5952 64.88 42.2252 65.282 42.7892 65.822L41.4212 67.424C40.5692 66.728 39.6572 66.38 38.6852 66.38C38.1692 66.38 37.7612 66.488 37.4612 66.704C37.1612 66.908 37.0112 67.208 37.0112 67.604C37.0112 67.88 37.0772 68.108 37.2092 68.288C37.3412 68.456 37.5752 68.618 37.9112 68.774C38.2472 68.93 38.7512 69.116 39.4232 69.332C40.6952 69.74 41.6312 70.244 42.2312 70.844C42.8312 71.432 43.1312 72.272 43.1312 73.364C43.1312 74.144 42.9332 74.834 42.5372 75.434C42.1412 76.022 41.5712 76.484 40.8272 76.82C40.0832 77.144 39.2012 77.306 38.1812 77.306C37.1612 77.306 36.2552 77.144 35.4632 76.82C34.6832 76.496 34.0112 76.064 33.4472 75.524L34.9412 73.886C35.4212 74.294 35.9132 74.6 36.4172 74.804C36.9332 75.008 37.4912 75.11 38.0912 75.11C38.7032 75.11 39.1832 74.978 39.5312 74.714C39.8912 74.438 40.0712 74.06 40.0712 73.58C40.0712 73.268 40.0052 73.01 39.8732 72.806C39.7412 72.59 39.5132 72.398 39.1892 72.23C38.8652 72.062 38.3972 71.882 37.7852 71.69C36.4052 71.27 35.4212 70.754 34.8332 70.142C34.2572 69.53 33.9692 68.756 33.9692 67.82C33.9692 67.1 34.1612 66.47 34.5452 65.93C34.9292 65.378 35.4632 64.958 36.1472 64.67C36.8312 64.37 37.6052 64.22 38.4692 64.22Z" fill="white"/>
</svg>
