<svg width="60" height="78" viewBox="0 0 60 78" fill="none" xmlns="http://www.w3.org/2000/svg">
<path d="M46.7527 27.3632C46.3896 27.1212 45.9815 26.9548 45.5527 26.8737C45.0695 26.775 44.5774 26.7273 44.0842 26.7316H43.7527C43.7527 26.8737 43.6579 27.2527 43.5474 27.8685L43.0579 30.5843C43.0579 30.9632 42.9158 31.4685 42.8053 32.1632C42.6948 32.858 42.6316 33.158 42.6316 33.4106C43.161 33.4084 43.6893 33.3609 44.2106 33.2685C44.6727 33.1856 45.1233 33.0478 45.5527 32.858C46.1213 32.5797 46.6265 32.1874 47.0369 31.7053C47.4295 31.176 47.6845 30.5575 47.779 29.9053C47.8969 29.3795 47.8585 28.8307 47.6685 28.3264C47.4736 27.9159 47.1528 27.5785 46.7527 27.3632ZM18.7264 27.3632C18.3626 27.1158 17.9555 26.939 17.5264 26.8422C17.043 26.745 16.551 26.6974 16.0579 26.7001H15.7895C15.7895 26.8422 15.6948 27.2211 15.5843 27.8369C15.4737 28.4527 15.3158 29.4159 15.1106 30.5527C15.1106 30.9316 14.9527 31.4369 14.8421 32.1316C14.7316 32.8264 14.6685 33.2053 14.6211 33.4422C15.1506 33.4414 15.6789 33.3939 16.2 33.3001C16.6622 33.2172 17.1127 33.0794 17.5421 32.8895C18.1108 32.6113 18.616 32.2189 19.0264 31.7369C19.4306 31.2127 19.6918 30.5924 19.7843 29.9369C19.8971 29.4095 19.8532 28.8607 19.6579 28.358C19.4608 27.9359 19.1346 27.5875 18.7264 27.3632Z" fill="white" fill-opacity="0.960784"/>
<path d="M18.7264 27.3632C18.3626 27.1158 17.9555 26.939 17.5264 26.8422C17.043 26.745 16.551 26.6974 16.0579 26.7001H15.7895C15.7895 26.8422 15.6948 27.2211 15.5843 27.8369C15.4737 28.4527 15.3158 29.4159 15.1106 30.5527C15.1106 30.9316 14.9527 31.4369 14.8421 32.1316C14.7316 32.8264 14.6685 33.2053 14.6211 33.4422C15.1506 33.4414 15.6789 33.3939 16.2 33.3001C16.6622 33.2172 17.1127 33.0794 17.5421 32.8895C18.1108 32.6113 18.616 32.2189 19.0264 31.7369C19.4306 31.2127 19.6918 30.5924 19.7843 29.9369C19.8971 29.4095 19.8532 28.8607 19.6579 28.358C19.4608 27.9359 19.1346 27.5875 18.7264 27.3632ZM46.7527 27.3632C46.3896 27.1212 45.9815 26.9548 45.5527 26.8737C45.0695 26.775 44.5774 26.7273 44.0842 26.7316H43.7527C43.7527 26.8737 43.6579 27.2527 43.5474 27.8685L43.0579 30.5843C43.0579 30.9632 42.9158 31.4685 42.8053 32.1632C42.6948 32.858 42.6316 33.158 42.6316 33.4106C43.161 33.4084 43.6893 33.3609 44.2106 33.2685C44.6727 33.1856 45.1233 33.0478 45.5527 32.858C46.1213 32.5797 46.6265 32.1874 47.0369 31.7053C47.4295 31.176 47.6845 30.5575 47.779 29.9053C47.8969 29.3795 47.8585 28.8307 47.6685 28.3264C47.4736 27.9159 47.1528 27.5785 46.7527 27.3632Z" fill="white" fill-opacity="0.960784"/>
<path d="M30.0002 1.1842C24.266 1.1842 18.6605 2.88481 13.8929 6.07091C9.12526 9.25701 5.40962 13.7855 3.21594 19.0835C1.02226 24.3816 0.44909 30.2112 1.56894 35.8351C2.68878 41.4589 5.45133 46.6243 9.50716 50.6779C13.563 54.7315 18.7299 57.4913 24.3543 58.6081C29.9788 59.7248 35.8081 59.1485 41.105 56.9519C46.4018 54.7554 50.9283 51.0373 54.1118 46.2679C57.2953 41.4985 58.9928 35.8921 58.9897 30.1579C58.9855 22.4721 55.9294 15.1026 50.4933 9.66944C45.0572 4.23627 37.686 1.1842 30.0002 1.1842ZM23.195 29.7C23.037 30.7828 22.5897 31.8029 21.9002 32.6526C21.2112 33.4542 20.3682 34.1093 19.4213 34.5789C18.6152 34.9704 17.7602 35.2519 16.8792 35.4158C16.0272 35.5917 15.1597 35.6816 14.2897 35.6842L13.4213 40.8789H9.96338C9.96338 40.5158 10.2002 39.4579 10.516 37.721C10.8318 35.9842 11.1792 34.0263 11.5423 31.9105C11.716 30.8842 11.9213 29.7 12.1423 28.3421C12.3634 26.9842 12.616 25.5789 12.8529 24.1579H14.716C15.9194 24.138 17.1227 24.2066 18.316 24.3632C19.2278 24.4868 20.1132 24.7588 20.9371 25.1684C21.7724 25.5656 22.4546 26.2256 22.8792 27.0474C23.2595 27.8767 23.37 28.8045 23.195 29.7ZM37.1213 27.4737C36.9634 28.3895 36.8213 29.1474 36.7108 29.7474L36.4265 31.3263C36.316 32.021 36.1739 32.9053 36.0318 33.7737C35.8897 34.6421 35.7634 35.3526 35.7002 35.7789H32.2423C32.2423 35.4632 32.416 34.7526 32.6371 33.6C32.8581 32.4474 32.9844 31.6895 33.0476 31.2789C33.1108 30.8684 33.1897 30.4737 33.2686 29.9842C33.3476 29.4947 33.4108 29.0684 33.4739 28.721C33.6205 28.1978 33.5815 27.6399 33.3634 27.1421C33.24 26.9746 33.0736 26.8435 32.8818 26.7629C32.69 26.6823 32.4799 26.6551 32.2739 26.6842C31.8139 26.7042 31.3604 26.8002 30.9318 26.9684C30.389 27.1606 29.8612 27.3928 29.3529 27.6632L27.995 35.7316H24.5213C24.616 35.1947 24.8055 34.1526 25.1055 32.4632C25.4055 30.7737 25.7213 29.021 26.0529 27.0632C26.2265 26.0368 26.4318 24.8526 26.6529 23.5263C26.8739 22.2 27.1265 20.7316 27.395 19.1684H30.8529L29.7476 25.2632C30.5251 24.8721 31.333 24.5447 32.1634 24.2842C32.863 24.0565 33.5912 23.9289 34.3265 23.9053C34.7597 23.8709 35.1948 23.9403 35.5957 24.1078C35.9967 24.2754 36.3519 24.5361 36.6318 24.8684C36.8973 25.2413 37.0786 25.6674 37.1631 26.1172C37.2477 26.5671 37.2334 27.0299 37.1213 27.4737ZM49.9265 32.6526C49.247 33.4576 48.4084 34.1135 47.4634 34.5789C46.6517 34.9703 45.7915 35.2518 44.9055 35.4158C44.0589 35.5924 43.1966 35.6823 42.3318 35.6842L41.4634 40.8789H37.9897L38.5581 37.721C38.8739 35.9684 39.2213 34.0263 39.5844 31.9105C39.7581 30.8842 39.9634 29.7 40.1844 28.3421C40.4055 26.9842 40.6423 25.5789 40.8792 24.1579H42.7581C43.9615 24.1391 45.1647 24.2077 46.3581 24.3632C47.2694 24.489 48.1545 24.7609 48.9792 25.1684C49.8134 25.5615 50.4917 26.2231 50.9055 27.0474C51.3055 27.8821 51.422 28.8246 51.2371 29.7316C51.0683 30.8046 50.6159 31.8131 49.9265 32.6526Z" fill="white" fill-opacity="0.960784"/>
<path d="M19.6894 29.9053C19.6016 30.5593 19.3459 31.1795 18.9473 31.7053C18.5369 32.1874 18.0317 32.5797 17.463 32.858C17.0336 33.0478 16.5831 33.1856 16.1209 33.2685C15.5998 33.3623 15.0715 33.4098 14.542 33.4106C14.542 33.1737 14.6683 32.7316 14.763 32.1001C14.8578 31.4685 14.9525 30.9632 15.0315 30.5211C15.2367 29.3211 15.3946 28.4053 15.5051 27.8053C15.6157 27.2053 15.6946 26.8106 15.7104 26.6685H16.0578C16.5508 26.6658 17.0428 26.7134 17.5262 26.8106C17.9532 26.8977 18.3601 27.0637 18.7262 27.3001C19.1067 27.552 19.3992 27.9162 19.563 28.3422C19.7552 28.8401 19.7991 29.383 19.6894 29.9053ZM47.7157 29.9053C47.6212 30.5575 47.3662 31.176 46.9736 31.7053C46.5632 32.1874 46.058 32.5797 45.4894 32.858C45.06 33.0478 44.6094 33.1856 44.1473 33.2685C43.626 33.3609 43.0977 33.4084 42.5683 33.4106C42.5683 33.1737 42.6788 32.7316 42.7894 32.1001C42.8999 31.4685 42.9788 30.9632 43.042 30.5211C43.2473 29.3211 43.4052 28.4053 43.5315 27.8053C43.6578 27.2053 43.7052 26.8106 43.7367 26.6685H44.0683C44.5614 26.6642 45.0536 26.7118 45.5367 26.8106C45.9655 26.8916 46.3736 27.0581 46.7367 27.3001C47.1261 27.5462 47.4252 27.9118 47.5894 28.3422C47.7816 28.8401 47.8254 29.383 47.7157 29.9053Z" fill="white" fill-opacity="0.960784"/>
<path d="M18.202 65.526C19.846 65.526 21.124 65.868 22.036 66.552C22.948 67.236 23.404 68.25 23.404 69.594C23.404 70.998 22.954 72.06 22.054 72.78C21.166 73.488 19.972 73.842 18.472 73.842H17.122V78H14.17V65.526H18.202ZM18.22 71.718C18.916 71.718 19.444 71.556 19.804 71.232C20.176 70.896 20.362 70.35 20.362 69.594C20.362 68.286 19.63 67.632 18.166 67.632H17.122V71.718H18.22ZM31.659 78V72.654H27.915V78H24.963V65.526H27.915V70.35H31.659V65.526H34.611V78H31.659ZM40.9833 65.526C42.6273 65.526 43.9053 65.868 44.8173 66.552C45.7293 67.236 46.1853 68.25 46.1853 69.594C46.1853 70.998 45.7353 72.06 44.8353 72.78C43.9473 73.488 42.7533 73.842 41.2533 73.842H39.9033V78H36.9513V65.526H40.9833ZM41.0013 71.718C41.6973 71.718 42.2253 71.556 42.5853 71.232C42.9573 70.896 43.1433 70.35 43.1433 69.594C43.1433 68.286 42.4113 67.632 40.9473 67.632H39.9033V71.718H41.0013Z" fill="white" fill-opacity="0.960784"/>
</svg>
