<svg width="65" height="78" viewBox="0 0 65 78" fill="none" xmlns="http://www.w3.org/2000/svg">
<path d="M33.6669 0.800049L12.2402 8.44005L15.4669 36.6534L33.6669 47.2001L51.8669 36.6534L55.0936 8.44005L33.6669 0.800049ZM50.4269 35.6534L33.6669 45.3334L16.9069 35.6534L13.9336 9.68005L33.6669 2.66672L53.4002 9.70671L50.4269 35.6534Z" fill="black"/>
<path d="M33.6667 4L15.1733 10.6667L17.96 35.0133L33.6667 44L49.3733 34.88L52.16 10.5333L33.6667 4ZM41.48 34.1333L38.7467 27.6267H28.5867L25.8533 34.1333H20.6533L33.6667 5.65333L46.68 34.0933L41.48 34.1333Z" fill="black"/>
<path d="M30.0801 24H37.2534L33.6667 15.4534L30.0801 24Z" fill="black"/>
<path d="M8.74 74L8.092 71.318H4.456L3.826 74H0.766L4.528 61.526H8.11L11.872 74H8.74ZM4.96 69.176H7.588L6.274 63.668L4.96 69.176ZM18.3312 64.136C19.1592 64.136 19.8072 64.388 20.2752 64.892C20.7432 65.396 20.9772 66.104 20.9772 67.016V74H18.1332V67.502C18.1332 67.022 18.0552 66.692 17.8992 66.512C17.7552 66.32 17.5332 66.224 17.2332 66.224C16.6572 66.224 16.1052 66.638 15.5772 67.466V74H12.7332V64.442H15.2172L15.4152 65.576C15.8232 65.096 16.2612 64.736 16.7292 64.496C17.2092 64.256 17.7432 64.136 18.3312 64.136ZM31.9239 65C31.2999 65.252 30.3819 65.378 29.1699 65.378C29.7939 65.642 30.2499 65.966 30.5379 66.35C30.8259 66.734 30.9699 67.232 30.9699 67.844C30.9699 68.456 30.8079 69.008 30.4839 69.5C30.1599 69.98 29.6919 70.358 29.0799 70.634C28.4799 70.91 27.7719 71.048 26.9559 71.048C26.5719 71.048 26.2059 71.012 25.8579 70.94C25.7619 70.988 25.6839 71.066 25.6239 71.174C25.5759 71.27 25.5519 71.372 25.5519 71.48C25.5519 71.66 25.6179 71.804 25.7499 71.912C25.8939 72.008 26.1759 72.056 26.5959 72.056H28.0359C28.7679 72.056 29.4099 72.176 29.9619 72.416C30.5139 72.656 30.9399 72.986 31.2399 73.406C31.5399 73.826 31.6899 74.3 31.6899 74.828C31.6899 75.824 31.2579 76.598 30.3939 77.15C29.5419 77.714 28.3059 77.996 26.6859 77.996C25.5219 77.996 24.6039 77.87 23.9319 77.618C23.2599 77.378 22.7859 77.036 22.5099 76.592C22.2459 76.148 22.1139 75.59 22.1139 74.918H24.6699C24.6699 75.206 24.7239 75.434 24.8319 75.602C24.9519 75.77 25.1619 75.896 25.4619 75.98C25.7619 76.064 26.1939 76.106 26.7579 76.106C27.5379 76.106 28.0779 76.01 28.3779 75.818C28.6779 75.638 28.8279 75.374 28.8279 75.026C28.8279 74.738 28.7139 74.51 28.4859 74.342C28.2579 74.174 27.9159 74.09 27.4599 74.09H26.0739C25.0899 74.09 24.3519 73.916 23.8599 73.568C23.3799 73.208 23.1399 72.752 23.1399 72.2C23.1399 71.852 23.2419 71.516 23.4459 71.192C23.6499 70.856 23.9259 70.58 24.2739 70.364C23.6739 70.04 23.2359 69.662 22.9599 69.23C22.6959 68.786 22.5639 68.252 22.5639 67.628C22.5639 66.56 22.9479 65.714 23.7159 65.09C24.4839 64.454 25.4979 64.136 26.7579 64.136C27.7179 64.16 28.5279 64.064 29.1879 63.848C29.8599 63.632 30.5499 63.314 31.2579 62.894L31.9239 65ZM26.8299 66.008C26.3859 66.008 26.0319 66.152 25.7679 66.44C25.5159 66.716 25.3899 67.1 25.3899 67.592C25.3899 68.108 25.5159 68.51 25.7679 68.798C26.0319 69.074 26.3859 69.212 26.8299 69.212C27.2979 69.212 27.6519 69.074 27.8919 68.798C28.1439 68.522 28.2699 68.108 28.2699 67.556C28.2699 66.524 27.7899 66.008 26.8299 66.008ZM40.9241 74H38.4581L38.3321 72.794C37.6361 73.802 36.6701 74.306 35.4341 74.306C34.5581 74.306 33.8921 74.042 33.4361 73.514C32.9921 72.986 32.7701 72.248 32.7701 71.3V64.442H35.6141V70.94C35.6141 71.408 35.6861 71.738 35.8301 71.93C35.9861 72.11 36.2201 72.2 36.5321 72.2C37.1321 72.2 37.6481 71.828 38.0801 71.084V64.442H40.9241V74ZM45.6989 74.306C44.8709 74.306 44.2229 74.072 43.7549 73.604C43.2989 73.124 43.0709 72.446 43.0709 71.57V60.644L45.9149 60.338V71.462C45.9149 71.858 46.0769 72.056 46.4009 72.056C46.5689 72.056 46.7249 72.026 46.8689 71.966L47.4269 73.982C46.9109 74.198 46.3349 74.306 45.6989 74.306ZM56.0128 71.228C56.0128 71.588 56.0608 71.852 56.1568 72.02C56.2648 72.188 56.4328 72.314 56.6608 72.398L56.0668 74.252C55.4788 74.204 54.9988 74.078 54.6268 73.874C54.2548 73.658 53.9668 73.322 53.7628 72.866C53.1388 73.826 52.1788 74.306 50.8828 74.306C49.9348 74.306 49.1788 74.03 48.6148 73.478C48.0508 72.926 47.7688 72.206 47.7688 71.318C47.7688 70.274 48.1528 69.476 48.9208 68.924C49.6888 68.372 50.7988 68.096 52.2508 68.096H53.2228V67.682C53.2228 67.118 53.1028 66.734 52.8628 66.53C52.6228 66.314 52.2028 66.206 51.6028 66.206C51.2908 66.206 50.9128 66.254 50.4688 66.35C50.0248 66.434 49.5688 66.554 49.1008 66.71L48.4528 64.838C49.0528 64.61 49.6648 64.436 50.2888 64.316C50.9248 64.196 51.5128 64.136 52.0528 64.136C53.4208 64.136 54.4228 64.418 55.0588 64.982C55.6948 65.546 56.0128 66.392 56.0128 67.52V71.228ZM51.7108 72.272C52.3588 72.272 52.8628 71.966 53.2228 71.354V69.662H52.5208C51.8728 69.662 51.3868 69.776 51.0628 70.004C50.7508 70.232 50.5948 70.586 50.5948 71.066C50.5948 71.45 50.6908 71.75 50.8828 71.966C51.0868 72.17 51.3628 72.272 51.7108 72.272ZM63.4621 64.172C63.8101 64.172 64.1281 64.214 64.4161 64.298L63.9661 67.052C63.6061 66.968 63.3181 66.926 63.1021 66.926C62.5381 66.926 62.1061 67.124 61.8061 67.52C61.5181 67.904 61.2901 68.486 61.1221 69.266V74H58.2781V64.442H60.7621L60.9961 66.296C61.2121 65.636 61.5361 65.12 61.9681 64.748C62.4121 64.364 62.9101 64.172 63.4621 64.172Z" fill="black"/>
</svg>
