<svg width="49" height="78" viewBox="0 0 49 78" fill="none" xmlns="http://www.w3.org/2000/svg">
<path d="M44.2651 42.846L48.6377 0H0L0.0571429 0.556L4.36571 42.852L4.40229 43.204L24.1349 48H24.4457L44.224 43.2L44.2606 42.848L44.2651 42.846ZM24.3611 9.358H38.4937L38.0686 13.678L24.1257 19.102L24.3589 20.078H37.4423L35.936 35.18L24.3109 38L12.6903 35.184L11.9589 27.952H16.7429L17.1269 31.618L17.1634 31.974L24.2149 33.614H24.5189L31.4926 31.918L31.5269 31.564L32.1851 24.792L32.2377 24.24H11.5589L11.1246 19.894L25.5451 14.492L25.3166 13.512H10.5051L10.0823 9.352H24.3451L24.3611 9.358Z" fill="black"/>
<path d="M15.264 61.22C16.044 61.22 16.734 61.334 17.334 61.562C17.946 61.79 18.522 62.132 19.062 62.588L17.658 64.262C17.286 63.974 16.92 63.758 16.56 63.614C16.2 63.47 15.816 63.398 15.408 63.398C14.568 63.398 13.902 63.752 13.41 64.46C12.93 65.168 12.69 66.26 12.69 67.736C12.69 69.188 12.93 70.268 13.41 70.976C13.902 71.672 14.58 72.02 15.444 72.02C15.9 72.02 16.314 71.936 16.686 71.768C17.058 71.588 17.46 71.336 17.892 71.012L19.206 72.704C18.738 73.172 18.168 73.556 17.496 73.856C16.836 74.156 16.104 74.306 15.3 74.306C14.148 74.306 13.146 74.054 12.294 73.55C11.442 73.046 10.776 72.302 10.296 71.318C9.828 70.322 9.594 69.128 9.594 67.736C9.594 66.38 9.834 65.21 10.314 64.226C10.806 63.242 11.478 62.498 12.33 61.994C13.194 61.478 14.172 61.22 15.264 61.22ZM24.3617 61.22C25.2977 61.22 26.1077 61.352 26.7917 61.616C27.4877 61.88 28.1177 62.282 28.6817 62.822L27.3137 64.424C26.4617 63.728 25.5497 63.38 24.5777 63.38C24.0617 63.38 23.6537 63.488 23.3537 63.704C23.0537 63.908 22.9037 64.208 22.9037 64.604C22.9037 64.88 22.9697 65.108 23.1017 65.288C23.2337 65.456 23.4677 65.618 23.8037 65.774C24.1397 65.93 24.6437 66.116 25.3157 66.332C26.5877 66.74 27.5237 67.244 28.1237 67.844C28.7237 68.432 29.0237 69.272 29.0237 70.364C29.0237 71.144 28.8257 71.834 28.4297 72.434C28.0337 73.022 27.4637 73.484 26.7197 73.82C25.9757 74.144 25.0937 74.306 24.0737 74.306C23.0537 74.306 22.1477 74.144 21.3557 73.82C20.5757 73.496 19.9037 73.064 19.3397 72.524L20.8337 70.886C21.3137 71.294 21.8057 71.6 22.3097 71.804C22.8257 72.008 23.3837 72.11 23.9837 72.11C24.5957 72.11 25.0757 71.978 25.4237 71.714C25.7837 71.438 25.9637 71.06 25.9637 70.58C25.9637 70.268 25.8977 70.01 25.7657 69.806C25.6337 69.59 25.4057 69.398 25.0817 69.23C24.7577 69.062 24.2897 68.882 23.6777 68.69C22.2977 68.27 21.3137 67.754 20.7257 67.142C20.1497 66.53 19.8617 65.756 19.8617 64.82C19.8617 64.1 20.0537 63.47 20.4377 62.93C20.8217 62.378 21.3557 61.958 22.0397 61.67C22.7237 61.37 23.4977 61.22 24.3617 61.22ZM34.4692 61.22C35.4052 61.22 36.2152 61.352 36.8992 61.616C37.5952 61.88 38.2252 62.282 38.7892 62.822L37.4212 64.424C36.5692 63.728 35.6572 63.38 34.6852 63.38C34.1692 63.38 33.7612 63.488 33.4612 63.704C33.1612 63.908 33.0112 64.208 33.0112 64.604C33.0112 64.88 33.0772 65.108 33.2092 65.288C33.3412 65.456 33.5752 65.618 33.9112 65.774C34.2472 65.93 34.7512 66.116 35.4232 66.332C36.6952 66.74 37.6312 67.244 38.2312 67.844C38.8312 68.432 39.1312 69.272 39.1312 70.364C39.1312 71.144 38.9332 71.834 38.5372 72.434C38.1412 73.022 37.5712 73.484 36.8272 73.82C36.0832 74.144 35.2012 74.306 34.1812 74.306C33.1612 74.306 32.2552 74.144 31.4632 73.82C30.6832 73.496 30.0112 73.064 29.4472 72.524L30.9412 70.886C31.4212 71.294 31.9132 71.6 32.4172 71.804C32.9332 72.008 33.4912 72.11 34.0912 72.11C34.7032 72.11 35.1832 71.978 35.5312 71.714C35.8912 71.438 36.0712 71.06 36.0712 70.58C36.0712 70.268 36.0052 70.01 35.8732 69.806C35.7412 69.59 35.5132 69.398 35.1892 69.23C34.8652 69.062 34.3972 68.882 33.7852 68.69C32.4052 68.27 31.4212 67.754 30.8332 67.142C30.2572 66.53 29.9692 65.756 29.9692 64.82C29.9692 64.1 30.1612 63.47 30.5452 62.93C30.9292 62.378 31.4632 61.958 32.1472 61.67C32.8312 61.37 33.6052 61.22 34.4692 61.22Z" fill="black"/>
</svg>
