<svg width="48" height="78" viewBox="0 0 48 78" fill="none" xmlns="http://www.w3.org/2000/svg">
<path d="M0.93457 0.742798L5.25457 42.4457L24.2019 47.2571L42.7198 42.4457L47.0651 0.742798H0.93457ZM37.5662 14.5257H15.7767L16.0672 19.4285H36.8083L35.4314 36.0457L23.4819 38.8571L11.7472 35.7828L10.7619 27.6914L16.9514 27.7828L17.1409 31.2114L23.4567 33.2571L29.9998 31.3942L30.4167 25.1428L10.5598 24.7885L9.3851 9.49708H37.5914L37.5662 14.5257Z" fill="black"/>
<path d="M8.866 74V68.654H5.122V74H2.17V61.526H5.122V66.35H8.866V61.526H11.818V74H8.866ZM22.6903 61.526L22.4023 63.794H19.3243V74H16.3723V63.794H13.1503V61.526H22.6903ZM35.9114 74H33.0134L32.7974 69.122C32.7374 67.958 32.7074 66.92 32.7074 66.008C32.7074 65.312 32.7254 64.652 32.7614 64.028L30.8354 72.686H28.0454L25.9934 64.028C26.0654 65.072 26.1014 66.056 26.1014 66.98C26.1014 67.676 26.0834 68.402 26.0474 69.158L25.8314 74H22.9514L23.8874 61.526H27.6134L29.4854 69.986L31.2314 61.526H34.9754L35.9114 74ZM40.6298 61.526V71.66H45.4898L45.1838 74H37.6778V61.526H40.6298Z" fill="black"/>
</svg>
