<svg width="93" height="88" viewBox="0 0 93 88" fill="none" xmlns="http://www.w3.org/2000/svg">
<g clip-path="url(#clip0_479_12)">
<path d="M70.7833 27.6613C70.8658 22.5689 69.7185 16.5132 67.3282 9.4082L65.4543 3.83655L62.9087 9.13452C62.7724 9.41776 62.6171 9.69503 62.4545 9.96872C58.2728 6.37857 52.847 4.19508 46.9024 4.19508C33.7011 4.19508 23 14.8962 23 28.0975C23 41.2988 33.7011 51.9999 46.9024 51.9999C60.1037 51.9999 70.8049 41.2988 70.8049 28.0975C70.8049 27.9505 70.7857 27.8083 70.7833 27.6613Z" fill="black"/>
<path d="M65.2891 38.3253C61.5568 43.4667 54.9501 43.7428 48.7319 43.634H40.6278H38.3117C43.6036 41.7302 46.7528 41.2773 49.9689 39.5706C56.0257 36.3856 62.0133 29.4169 63.2598 22.1673C60.9532 29.142 53.963 35.1343 47.593 37.5712C43.2284 39.236 35.3454 40.8518 35.3454 40.8518L35.0263 40.6785C29.6602 37.9787 29.4976 25.963 39.2534 22.0836C43.5248 20.383 47.6109 21.3175 52.2253 20.1798C57.1515 18.9703 62.8499 15.1507 65.1684 10.1707C67.7642 18.1385 70.8883 30.6144 65.2891 38.3253ZM36.9444 45.361C36.6074 45.7793 36.0923 46.0243 35.5545 46.0243C34.5709 46.0243 33.7678 45.2152 33.7678 44.2316C33.7678 43.248 34.5769 42.4389 35.5545 42.4389C35.962 42.4389 36.3636 42.5799 36.6791 42.8405C37.444 43.4608 37.5635 44.5961 36.9444 45.361Z" fill="white"/>
</g>
<path d="M5.184 71.22C6.12 71.22 6.93 71.352 7.614 71.616C8.31 71.88 8.94 72.282 9.504 72.822L8.136 74.424C7.284 73.728 6.372 73.38 5.4 73.38C4.884 73.38 4.476 73.488 4.176 73.704C3.876 73.908 3.726 74.208 3.726 74.604C3.726 74.88 3.792 75.108 3.924 75.288C4.056 75.456 4.29 75.618 4.626 75.774C4.962 75.93 5.466 76.116 6.138 76.332C7.41 76.74 8.346 77.244 8.946 77.844C9.546 78.432 9.846 79.272 9.846 80.364C9.846 81.144 9.648 81.834 9.252 82.434C8.856 83.022 8.286 83.484 7.542 83.82C6.798 84.144 5.916 84.306 4.896 84.306C3.876 84.306 2.97 84.144 2.178 83.82C1.398 83.496 0.726 83.064 0.162 82.524L1.656 80.886C2.136 81.294 2.628 81.6 3.132 81.804C3.648 82.008 4.206 82.11 4.806 82.11C5.418 82.11 5.898 81.978 6.246 81.714C6.606 81.438 6.786 81.06 6.786 80.58C6.786 80.268 6.72 80.01 6.588 79.806C6.456 79.59 6.228 79.398 5.904 79.23C5.58 79.062 5.112 78.882 4.5 78.69C3.12 78.27 2.136 77.754 1.548 77.142C0.972 76.53 0.684 75.756 0.684 74.82C0.684 74.1 0.876 73.47 1.26 72.93C1.644 72.378 2.178 71.958 2.862 71.67C3.546 71.37 4.32 71.22 5.184 71.22ZM16.8168 74.136C18.0168 74.136 18.9108 74.58 19.4988 75.468C20.0868 76.356 20.3808 77.598 20.3808 79.194C20.3808 80.178 20.2248 81.06 19.9128 81.84C19.6128 82.608 19.1748 83.214 18.5988 83.658C18.0228 84.09 17.3508 84.306 16.5828 84.306C15.6228 84.306 14.8488 83.976 14.2608 83.316V87.69L11.4168 87.996V74.442H13.9188L14.0628 75.504C14.4348 75.036 14.8608 74.694 15.3408 74.478C15.8208 74.25 16.3128 74.136 16.8168 74.136ZM15.7188 82.218C16.8588 82.218 17.4288 81.222 17.4288 79.23C17.4288 78.102 17.3028 77.322 17.0508 76.89C16.7988 76.446 16.4208 76.224 15.9168 76.224C15.5928 76.224 15.2868 76.32 14.9988 76.512C14.7228 76.704 14.4768 76.98 14.2608 77.34V81.372C14.6448 81.936 15.1308 82.218 15.7188 82.218ZM27.341 74.172C27.689 74.172 28.007 74.214 28.295 74.298L27.845 77.052C27.485 76.968 27.197 76.926 26.981 76.926C26.417 76.926 25.985 77.124 25.685 77.52C25.397 77.904 25.169 78.486 25.001 79.266V84H22.157V74.442H24.641L24.875 76.296C25.091 75.636 25.415 75.12 25.847 74.748C26.291 74.364 26.789 74.172 27.341 74.172ZM32.2256 74.442V84H29.3816V74.442H32.2256ZM30.7856 69.402C31.2776 69.402 31.6796 69.558 31.9916 69.87C32.3156 70.17 32.4776 70.554 32.4776 71.022C32.4776 71.49 32.3156 71.88 31.9916 72.192C31.6796 72.492 31.2776 72.642 30.7856 72.642C30.2936 72.642 29.8916 72.492 29.5796 72.192C29.2676 71.88 29.1116 71.49 29.1116 71.022C29.1116 70.554 29.2676 70.17 29.5796 69.87C29.8916 69.558 30.2936 69.402 30.7856 69.402ZM40.0597 74.136C40.8877 74.136 41.5357 74.388 42.0037 74.892C42.4717 75.396 42.7057 76.104 42.7057 77.016V84H39.8617V77.502C39.8617 77.022 39.7837 76.692 39.6277 76.512C39.4837 76.32 39.2617 76.224 38.9617 76.224C38.3857 76.224 37.8337 76.638 37.3057 77.466V84H34.4617V74.442H36.9457L37.1437 75.576C37.5517 75.096 37.9897 74.736 38.4577 74.496C38.9377 74.256 39.4717 74.136 40.0597 74.136ZM53.6524 75C53.0284 75.252 52.1104 75.378 50.8984 75.378C51.5224 75.642 51.9784 75.966 52.2664 76.35C52.5544 76.734 52.6984 77.232 52.6984 77.844C52.6984 78.456 52.5364 79.008 52.2124 79.5C51.8884 79.98 51.4204 80.358 50.8084 80.634C50.2084 80.91 49.5004 81.048 48.6844 81.048C48.3004 81.048 47.9344 81.012 47.5864 80.94C47.4904 80.988 47.4124 81.066 47.3524 81.174C47.3044 81.27 47.2804 81.372 47.2804 81.48C47.2804 81.66 47.3464 81.804 47.4784 81.912C47.6224 82.008 47.9044 82.056 48.3244 82.056H49.7644C50.4964 82.056 51.1384 82.176 51.6904 82.416C52.2424 82.656 52.6684 82.986 52.9684 83.406C53.2684 83.826 53.4184 84.3 53.4184 84.828C53.4184 85.824 52.9864 86.598 52.1224 87.15C51.2704 87.714 50.0344 87.996 48.4144 87.996C47.2504 87.996 46.3324 87.87 45.6604 87.618C44.9884 87.378 44.5144 87.036 44.2384 86.592C43.9744 86.148 43.8424 85.59 43.8424 84.918H46.3984C46.3984 85.206 46.4524 85.434 46.5604 85.602C46.6804 85.77 46.8904 85.896 47.1904 85.98C47.4904 86.064 47.9224 86.106 48.4864 86.106C49.2664 86.106 49.8064 86.01 50.1064 85.818C50.4064 85.638 50.5564 85.374 50.5564 85.026C50.5564 84.738 50.4424 84.51 50.2144 84.342C49.9864 84.174 49.6444 84.09 49.1884 84.09H47.8024C46.8184 84.09 46.0804 83.916 45.5884 83.568C45.1084 83.208 44.8684 82.752 44.8684 82.2C44.8684 81.852 44.9704 81.516 45.1744 81.192C45.3784 80.856 45.6544 80.58 46.0024 80.364C45.4024 80.04 44.9644 79.662 44.6884 79.23C44.4244 78.786 44.2924 78.252 44.2924 77.628C44.2924 76.56 44.6764 75.714 45.4444 75.09C46.2124 74.454 47.2264 74.136 48.4864 74.136C49.4464 74.16 50.2564 74.064 50.9164 73.848C51.5884 73.632 52.2784 73.314 52.9864 72.894L53.6524 75ZM48.5584 76.008C48.1144 76.008 47.7604 76.152 47.4964 76.44C47.2444 76.716 47.1184 77.1 47.1184 77.592C47.1184 78.108 47.2444 78.51 47.4964 78.798C47.7604 79.074 48.1144 79.212 48.5584 79.212C49.0264 79.212 49.3804 79.074 49.6204 78.798C49.8724 78.522 49.9984 78.108 49.9984 77.556C49.9984 76.524 49.5184 76.008 48.5584 76.008ZM61.4604 77.394C62.2884 77.55 62.9604 77.856 63.4764 78.312C64.0044 78.768 64.2684 79.452 64.2684 80.364C64.2684 81.696 63.7884 82.638 62.8284 83.19C61.8804 83.73 60.5484 84 58.8324 84H54.8184V71.526H58.3464C60.0984 71.526 61.4364 71.778 62.3604 72.282C63.2844 72.774 63.7464 73.584 63.7464 74.712C63.7464 75.444 63.5244 76.038 63.0804 76.494C62.6484 76.938 62.1084 77.238 61.4604 77.394ZM57.7704 73.614V76.512H58.8684C60.1164 76.512 60.7404 76.008 60.7404 75C60.7404 74.496 60.5724 74.142 60.2364 73.938C59.9004 73.722 59.3664 73.614 58.6344 73.614H57.7704ZM58.8504 81.858C59.6304 81.858 60.2184 81.744 60.6144 81.516C61.0224 81.276 61.2264 80.838 61.2264 80.202C61.2264 79.05 60.5064 78.474 59.0664 78.474H57.7704V81.858H58.8504ZM70.0138 74.136C71.4778 74.136 72.6238 74.586 73.4518 75.486C74.2798 76.374 74.6938 77.622 74.6938 79.23C74.6938 80.25 74.5018 81.144 74.1178 81.912C73.7458 82.668 73.2058 83.256 72.4978 83.676C71.8018 84.096 70.9738 84.306 70.0138 84.306C68.5618 84.306 67.4158 83.862 66.5758 82.974C65.7478 82.074 65.3338 80.82 65.3338 79.212C65.3338 78.192 65.5198 77.304 65.8918 76.548C66.2758 75.78 66.8158 75.186 67.5118 74.766C68.2198 74.346 69.0538 74.136 70.0138 74.136ZM70.0138 76.224C69.4378 76.224 69.0058 76.47 68.7178 76.962C68.4298 77.442 68.2858 78.192 68.2858 79.212C68.2858 80.256 68.4238 81.018 68.6998 81.498C68.9878 81.978 69.4258 82.218 70.0138 82.218C70.5898 82.218 71.0218 81.978 71.3098 81.498C71.5978 81.006 71.7418 80.25 71.7418 79.23C71.7418 78.186 71.5978 77.424 71.3098 76.944C71.0338 76.464 70.6018 76.224 70.0138 76.224ZM80.5255 74.136C81.9895 74.136 83.1355 74.586 83.9635 75.486C84.7915 76.374 85.2055 77.622 85.2055 79.23C85.2055 80.25 85.0135 81.144 84.6295 81.912C84.2575 82.668 83.7175 83.256 83.0095 83.676C82.3135 84.096 81.4855 84.306 80.5255 84.306C79.0735 84.306 77.9275 83.862 77.0875 82.974C76.2595 82.074 75.8455 80.82 75.8455 79.212C75.8455 78.192 76.0315 77.304 76.4035 76.548C76.7875 75.78 77.3275 75.186 78.0235 74.766C78.7315 74.346 79.5655 74.136 80.5255 74.136ZM80.5255 76.224C79.9495 76.224 79.5175 76.47 79.2295 76.962C78.9415 77.442 78.7975 78.192 78.7975 79.212C78.7975 80.256 78.9355 81.018 79.2115 81.498C79.4995 81.978 79.9375 82.218 80.5255 82.218C81.1015 82.218 81.5335 81.978 81.8215 81.498C82.1095 81.006 82.2535 80.25 82.2535 79.23C82.2535 78.186 82.1095 77.424 81.8215 76.944C81.5455 76.464 81.1135 76.224 80.5255 76.224ZM92.8913 83.55C92.5433 83.79 92.1353 83.976 91.6673 84.108C91.2113 84.24 90.7553 84.306 90.2993 84.306C88.2113 84.294 87.1673 83.142 87.1673 80.85V76.422H85.8173V74.442H87.1673V72.372L90.0113 72.048V74.442H92.2073L91.9013 76.422H90.0113V80.814C90.0113 81.258 90.0833 81.576 90.2273 81.768C90.3713 81.96 90.5993 82.056 90.9113 82.056C91.2353 82.056 91.5773 81.954 91.9373 81.75L92.8913 83.55Z" fill="black"/>
<defs>
<clipPath id="clip0_479_12">
<rect width="47.8049" height="49" fill="white" transform="translate(23 3)"/>
</clipPath>
</defs>
</svg>
