<svg width="89" height="86" viewBox="0 0 89 86" fill="none" xmlns="http://www.w3.org/2000/svg">
<path d="M9.702 69.526L9.414 71.794H6.336V82H3.384V71.794H0.162V69.526H9.702ZM15.39 82.018C15.006 83.254 14.376 84.202 13.5 84.862C12.636 85.534 11.472 85.912 10.008 85.996L9.702 83.998C10.614 83.878 11.286 83.674 11.718 83.386C12.162 83.098 12.516 82.636 12.78 82H11.808L8.892 72.442H11.916L13.626 80.182L15.498 72.442H18.432L15.39 82.018ZM24.8324 72.136C26.0324 72.136 26.9264 72.58 27.5144 73.468C28.1024 74.356 28.3964 75.598 28.3964 77.194C28.3964 78.178 28.2404 79.06 27.9284 79.84C27.6284 80.608 27.1904 81.214 26.6144 81.658C26.0384 82.09 25.3664 82.306 24.5984 82.306C23.6384 82.306 22.8644 81.976 22.2764 81.316V85.69L19.4324 85.996V72.442H21.9344L22.0784 73.504C22.4504 73.036 22.8764 72.694 23.3564 72.478C23.8364 72.25 24.3284 72.136 24.8324 72.136ZM23.7344 80.218C24.8744 80.218 25.4444 79.222 25.4444 77.23C25.4444 76.102 25.3184 75.322 25.0664 74.89C24.8144 74.446 24.4364 74.224 23.9324 74.224C23.6084 74.224 23.3024 74.32 23.0144 74.512C22.7384 74.704 22.4924 74.98 22.2764 75.34V79.372C22.6604 79.936 23.1464 80.218 23.7344 80.218ZM38.5066 77.032C38.5066 77.428 38.4886 77.77 38.4526 78.058H32.5306C32.6266 78.862 32.8546 79.426 33.2146 79.75C33.5746 80.074 34.0726 80.236 34.7086 80.236C35.0926 80.236 35.4646 80.17 35.8246 80.038C36.1846 79.894 36.5746 79.678 36.9946 79.39L38.1646 80.974C37.0486 81.862 35.8066 82.306 34.4386 82.306C32.8906 82.306 31.7026 81.85 30.8746 80.938C30.0466 80.026 29.6326 78.802 29.6326 77.266C29.6326 76.294 29.8066 75.424 30.1546 74.656C30.5026 73.876 31.0126 73.264 31.6846 72.82C32.3566 72.364 33.1606 72.136 34.0966 72.136C35.4766 72.136 36.5566 72.568 37.3366 73.432C38.1166 74.296 38.5066 75.496 38.5066 77.032ZM35.7166 76.222C35.6926 74.758 35.1766 74.026 34.1686 74.026C33.6766 74.026 33.2926 74.206 33.0166 74.566C32.7526 74.926 32.5906 75.52 32.5306 76.348H35.7166V76.222ZM44.1723 69.22C45.1083 69.22 45.9183 69.352 46.6023 69.616C47.2983 69.88 47.9283 70.282 48.4923 70.822L47.1243 72.424C46.2723 71.728 45.3603 71.38 44.3883 71.38C43.8723 71.38 43.4643 71.488 43.1643 71.704C42.8643 71.908 42.7143 72.208 42.7143 72.604C42.7143 72.88 42.7803 73.108 42.9123 73.288C43.0443 73.456 43.2783 73.618 43.6143 73.774C43.9503 73.93 44.4543 74.116 45.1263 74.332C46.3983 74.74 47.3343 75.244 47.9343 75.844C48.5343 76.432 48.8343 77.272 48.8343 78.364C48.8343 79.144 48.6363 79.834 48.2403 80.434C47.8443 81.022 47.2743 81.484 46.5303 81.82C45.7863 82.144 44.9043 82.306 43.8843 82.306C42.8643 82.306 41.9583 82.144 41.1663 81.82C40.3863 81.496 39.7143 81.064 39.1503 80.524L40.6443 78.886C41.1243 79.294 41.6163 79.6 42.1203 79.804C42.6363 80.008 43.1943 80.11 43.7943 80.11C44.4063 80.11 44.8863 79.978 45.2343 79.714C45.5943 79.438 45.7743 79.06 45.7743 78.58C45.7743 78.268 45.7083 78.01 45.5763 77.806C45.4443 77.59 45.2163 77.398 44.8923 77.23C44.5683 77.062 44.1003 76.882 43.4883 76.69C42.1083 76.27 41.1243 75.754 40.5363 75.142C39.9603 74.53 39.6723 73.756 39.6723 72.82C39.6723 72.1 39.8643 71.47 40.2483 70.93C40.6323 70.378 41.1663 69.958 41.8503 69.67C42.5343 69.37 43.3083 69.22 44.1723 69.22ZM54.5451 72.136C55.2051 72.136 55.7991 72.232 56.3271 72.424C56.8551 72.616 57.3531 72.91 57.8211 73.306L56.5971 74.998C55.9971 74.542 55.3911 74.314 54.7791 74.314C54.1431 74.314 53.6631 74.548 53.3391 75.016C53.0151 75.484 52.8531 76.24 52.8531 77.284C52.8531 78.292 53.0151 79.006 53.3391 79.426C53.6631 79.846 54.1311 80.056 54.7431 80.056C55.0671 80.056 55.3611 80.008 55.6251 79.912C55.8891 79.804 56.2071 79.636 56.5791 79.408L57.8211 81.172C56.8731 81.928 55.7991 82.306 54.5991 82.306C53.6271 82.306 52.7871 82.102 52.0791 81.694C51.3711 81.274 50.8251 80.692 50.4411 79.948C50.0571 79.192 49.8651 78.31 49.8651 77.302C49.8651 76.294 50.0571 75.4 50.4411 74.62C50.8251 73.84 51.3711 73.234 52.0791 72.802C52.7871 72.358 53.6091 72.136 54.5451 72.136ZM64.2023 72.172C64.5503 72.172 64.8683 72.214 65.1563 72.298L64.7063 75.052C64.3463 74.968 64.0583 74.926 63.8423 74.926C63.2783 74.926 62.8463 75.124 62.5463 75.52C62.2583 75.904 62.0303 76.486 61.8623 77.266V82H59.0183V72.442H61.5023L61.7363 74.296C61.9523 73.636 62.2763 73.12 62.7083 72.748C63.1523 72.364 63.6503 72.172 64.2023 72.172ZM69.087 72.442V82H66.243V72.442H69.087ZM67.647 67.402C68.139 67.402 68.541 67.558 68.853 67.87C69.177 68.17 69.339 68.554 69.339 69.022C69.339 69.49 69.177 69.88 68.853 70.192C68.541 70.492 68.139 70.642 67.647 70.642C67.155 70.642 66.753 70.492 66.441 70.192C66.129 69.88 65.973 69.49 65.973 69.022C65.973 68.554 66.129 68.17 66.441 67.87C66.753 67.558 67.155 67.402 67.647 67.402ZM76.723 72.136C77.923 72.136 78.817 72.58 79.405 73.468C79.993 74.356 80.287 75.598 80.287 77.194C80.287 78.178 80.131 79.06 79.819 79.84C79.519 80.608 79.081 81.214 78.505 81.658C77.929 82.09 77.257 82.306 76.489 82.306C75.529 82.306 74.755 81.976 74.167 81.316V85.69L71.323 85.996V72.442H73.825L73.969 73.504C74.341 73.036 74.767 72.694 75.247 72.478C75.727 72.25 76.219 72.136 76.723 72.136ZM75.625 80.218C76.765 80.218 77.335 79.222 77.335 77.23C77.335 76.102 77.209 75.322 76.957 74.89C76.705 74.446 76.327 74.224 75.823 74.224C75.499 74.224 75.193 74.32 74.905 74.512C74.629 74.704 74.383 74.98 74.167 75.34V79.372C74.551 79.936 75.037 80.218 75.625 80.218ZM88.0573 81.55C87.7093 81.79 87.3013 81.976 86.8333 82.108C86.3773 82.24 85.9213 82.306 85.4653 82.306C83.3773 82.294 82.3333 81.142 82.3333 78.85V74.422H80.9833V72.442H82.3333V70.372L85.1773 70.048V72.442H87.3733L87.0673 74.422H85.1773V78.814C85.1773 79.258 85.2493 79.576 85.3933 79.768C85.5373 79.96 85.7653 80.056 86.0773 80.056C86.4013 80.056 86.7433 79.954 87.1033 79.75L88.0573 81.55Z" fill="black"/>
<g clip-path="url(#clip0_479_7)">
<path d="M66.6219 2.91089H22.026C21.4095 2.91089 20.9111 3.41036 20.9111 4.02578V48.6216C20.9111 49.237 21.4095 49.7365 22.026 49.7365H66.6219C67.2384 49.7365 67.7368 49.237 67.7368 48.6216V4.02578C67.7368 3.41036 67.2384 2.91089 66.6219 2.91089ZM48.7835 27.9347H43.209V45.2769H38.7495V27.9347H33.175V24.0939H48.7835V27.9347ZM50.0333 44.2869V39.6512C50.0333 39.6512 52.5653 41.5599 55.6033 41.5599C58.6414 41.5599 58.5244 39.5731 58.5244 39.3011C58.5244 36.418 49.9163 36.418 49.9163 30.0307C49.9163 21.3446 62.4588 24.7718 62.4588 24.7718L62.3028 28.9013C62.3028 28.9013 60.199 27.4988 57.8231 27.4988C55.4473 27.4988 54.5899 28.6282 54.5899 29.8356C54.5899 32.9518 63.2761 32.6407 63.2761 38.912C63.2772 48.5714 50.0333 44.2869 50.0333 44.2869Z" fill="black"/>
</g>
<defs>
<clipPath id="clip0_479_7">
<rect width="49" height="49" fill="white" transform="translate(18)"/>
</clipPath>
</defs>
</svg>
