<svg width="85" height="78" viewBox="0 0 85 78" fill="none" xmlns="http://www.w3.org/2000/svg">
<path d="M20.0669 1.06665V46.9333H65.9336V1.06665H20.0669ZM45.0402 35.4533C45.0402 41.0933 42.3069 42.9733 38.2536 42.9733C37.1943 42.9719 36.1416 42.8054 35.1336 42.48L35.5869 39.4667C36.3248 39.7195 37.1002 39.8457 37.8802 39.84C40.0136 39.84 41.3069 38.88 41.3069 35.3333V22.2133H45.0402V35.4533ZM53.7336 42.9467C51.8134 42.9502 49.9204 42.493 48.2136 41.6133L49.0402 38.52C50.5473 39.3699 52.2435 39.8284 53.9736 39.8533C56.3336 39.8667 57.6669 38.7467 57.6669 37.08C57.6669 35.4133 56.6536 34.6667 54.0669 33.6933C50.6936 32.4933 48.5469 30.68 48.5469 27.76C48.5469 24.4133 51.3336 21.8933 55.7736 21.8933C57.4616 21.8419 59.1381 22.1891 60.6669 22.9067L59.7736 25.9067C58.5102 25.2642 57.1109 24.9349 55.6936 24.9467C53.3202 24.9467 52.3202 26.2 52.3202 27.4C52.3202 28.9733 53.5069 29.7066 56.2269 30.7466C59.7736 32.08 61.4802 33.88 61.4802 36.8133C61.4802 40.1067 59.0002 42.9467 53.7336 42.9467Z" fill="black"/>
<path d="M5.608 72.11C5.608 73.106 5.428 73.928 5.068 74.576C4.72 75.224 4.252 75.728 3.664 76.088C3.088 76.46 2.398 76.778 1.594 77.042L0.802 74.954C1.33 74.75 1.726 74.516 1.99 74.252C2.254 73.988 2.428 73.682 2.512 73.334C2.608 72.986 2.656 72.542 2.656 72.002V61.526H5.608V72.11ZM15.4249 71.228C15.4249 71.588 15.4729 71.852 15.5689 72.02C15.6769 72.188 15.8449 72.314 16.0729 72.398L15.4789 74.252C14.8909 74.204 14.4109 74.078 14.0389 73.874C13.6669 73.658 13.3789 73.322 13.1749 72.866C12.5509 73.826 11.5909 74.306 10.2949 74.306C9.34689 74.306 8.59089 74.03 8.02689 73.478C7.46289 72.926 7.18089 72.206 7.18089 71.318C7.18089 70.274 7.56489 69.476 8.33289 68.924C9.10089 68.372 10.2109 68.096 11.6629 68.096H12.6349V67.682C12.6349 67.118 12.5149 66.734 12.2749 66.53C12.0349 66.314 11.6149 66.206 11.0149 66.206C10.7029 66.206 10.3249 66.254 9.88089 66.35C9.43689 66.434 8.98089 66.554 8.51289 66.71L7.86489 64.838C8.46489 64.61 9.07689 64.436 9.70089 64.316C10.3369 64.196 10.9249 64.136 11.4649 64.136C12.8329 64.136 13.8349 64.418 14.4709 64.982C15.1069 65.546 15.4249 66.392 15.4249 67.52V71.228ZM11.1229 72.272C11.7709 72.272 12.2749 71.966 12.6349 71.354V69.662H11.9329C11.2849 69.662 10.7989 69.776 10.4749 70.004C10.1629 70.232 10.0069 70.586 10.0069 71.066C10.0069 71.45 10.1029 71.75 10.2949 71.966C10.4989 72.17 10.7749 72.272 11.1229 72.272ZM25.6525 64.442L22.6465 74H19.2805L16.2025 64.442H19.2985L20.9905 71.84L22.7545 64.442H25.6525ZM33.8468 71.228C33.8468 71.588 33.8948 71.852 33.9908 72.02C34.0988 72.188 34.2668 72.314 34.4948 72.398L33.9008 74.252C33.3128 74.204 32.8328 74.078 32.4608 73.874C32.0888 73.658 31.8008 73.322 31.5968 72.866C30.9728 73.826 30.0128 74.306 28.7168 74.306C27.7688 74.306 27.0128 74.03 26.4488 73.478C25.8848 72.926 25.6028 72.206 25.6028 71.318C25.6028 70.274 25.9868 69.476 26.7548 68.924C27.5228 68.372 28.6328 68.096 30.0848 68.096H31.0568V67.682C31.0568 67.118 30.9368 66.734 30.6968 66.53C30.4568 66.314 30.0368 66.206 29.4368 66.206C29.1248 66.206 28.7468 66.254 28.3028 66.35C27.8588 66.434 27.4028 66.554 26.9348 66.71L26.2868 64.838C26.8868 64.61 27.4988 64.436 28.1228 64.316C28.7588 64.196 29.3468 64.136 29.8868 64.136C31.2548 64.136 32.2568 64.418 32.8928 64.982C33.5288 65.546 33.8468 66.392 33.8468 67.52V71.228ZM29.5448 72.272C30.1928 72.272 30.6968 71.966 31.0568 71.354V69.662H30.3548C29.7068 69.662 29.2208 69.776 28.8968 70.004C28.5848 70.232 28.4288 70.586 28.4288 71.066C28.4288 71.45 28.5248 71.75 28.7168 71.966C28.9208 72.17 29.1968 72.272 29.5448 72.272ZM40.1801 61.22C41.1161 61.22 41.9261 61.352 42.6101 61.616C43.3061 61.88 43.9361 62.282 44.5001 62.822L43.1321 64.424C42.2801 63.728 41.3681 63.38 40.3961 63.38C39.8801 63.38 39.4721 63.488 39.1721 63.704C38.8721 63.908 38.7221 64.208 38.7221 64.604C38.7221 64.88 38.7881 65.108 38.9201 65.288C39.0521 65.456 39.2861 65.618 39.6221 65.774C39.9581 65.93 40.4621 66.116 41.1341 66.332C42.4061 66.74 43.3421 67.244 43.9421 67.844C44.5421 68.432 44.8421 69.272 44.8421 70.364C44.8421 71.144 44.6441 71.834 44.2481 72.434C43.8521 73.022 43.2821 73.484 42.5381 73.82C41.7941 74.144 40.9121 74.306 39.8921 74.306C38.8721 74.306 37.9661 74.144 37.1741 73.82C36.3941 73.496 35.7221 73.064 35.1581 72.524L36.6521 70.886C37.1321 71.294 37.6241 71.6 38.1281 71.804C38.6441 72.008 39.2021 72.11 39.8021 72.11C40.4141 72.11 40.8941 71.978 41.2421 71.714C41.6021 71.438 41.7821 71.06 41.7821 70.58C41.7821 70.268 41.7161 70.01 41.5841 69.806C41.4521 69.59 41.2241 69.398 40.9001 69.23C40.5761 69.062 40.1081 68.882 39.4961 68.69C38.1161 68.27 37.1321 67.754 36.5441 67.142C35.9681 66.53 35.6801 65.756 35.6801 64.82C35.6801 64.1 35.8721 63.47 36.2561 62.93C36.6401 62.378 37.1741 61.958 37.8581 61.67C38.5421 61.37 39.3161 61.22 40.1801 61.22ZM50.5529 64.136C51.2129 64.136 51.8069 64.232 52.3349 64.424C52.8629 64.616 53.3609 64.91 53.8289 65.306L52.6049 66.998C52.0049 66.542 51.3989 66.314 50.7869 66.314C50.1509 66.314 49.6709 66.548 49.3469 67.016C49.0229 67.484 48.8609 68.24 48.8609 69.284C48.8609 70.292 49.0229 71.006 49.3469 71.426C49.6709 71.846 50.1389 72.056 50.7509 72.056C51.0749 72.056 51.3689 72.008 51.6329 71.912C51.8969 71.804 52.2149 71.636 52.5869 71.408L53.8289 73.172C52.8809 73.928 51.8069 74.306 50.6069 74.306C49.6349 74.306 48.7949 74.102 48.0869 73.694C47.3789 73.274 46.8329 72.692 46.4489 71.948C46.0649 71.192 45.8729 70.31 45.8729 69.302C45.8729 68.294 46.0649 67.4 46.4489 66.62C46.8329 65.84 47.3789 65.234 48.0869 64.802C48.7949 64.358 49.6169 64.136 50.5529 64.136ZM60.2102 64.172C60.5582 64.172 60.8762 64.214 61.1642 64.298L60.7142 67.052C60.3542 66.968 60.0662 66.926 59.8502 66.926C59.2862 66.926 58.8542 67.124 58.5542 67.52C58.2662 67.904 58.0382 68.486 57.8702 69.266V74H55.0262V64.442H57.5102L57.7442 66.296C57.9602 65.636 58.2842 65.12 58.7162 64.748C59.1602 64.364 59.6582 64.172 60.2102 64.172ZM65.0948 64.442V74H62.2508V64.442H65.0948ZM63.6548 59.402C64.1468 59.402 64.5488 59.558 64.8608 59.87C65.1848 60.17 65.3468 60.554 65.3468 61.022C65.3468 61.49 65.1848 61.88 64.8608 62.192C64.5488 62.492 64.1468 62.642 63.6548 62.642C63.1628 62.642 62.7608 62.492 62.4488 62.192C62.1368 61.88 61.9808 61.49 61.9808 61.022C61.9808 60.554 62.1368 60.17 62.4488 59.87C62.7608 59.558 63.1628 59.402 63.6548 59.402ZM72.7308 64.136C73.9308 64.136 74.8248 64.58 75.4128 65.468C76.0008 66.356 76.2948 67.598 76.2948 69.194C76.2948 70.178 76.1388 71.06 75.8268 71.84C75.5268 72.608 75.0888 73.214 74.5128 73.658C73.9368 74.09 73.2648 74.306 72.4968 74.306C71.5368 74.306 70.7628 73.976 70.1748 73.316V77.69L67.3308 77.996V64.442H69.8328L69.9768 65.504C70.3488 65.036 70.7748 64.694 71.2548 64.478C71.7348 64.25 72.2268 64.136 72.7308 64.136ZM71.6328 72.218C72.7728 72.218 73.3428 71.222 73.3428 69.23C73.3428 68.102 73.2168 67.322 72.9648 66.89C72.7128 66.446 72.3348 66.224 71.8308 66.224C71.5068 66.224 71.2008 66.32 70.9128 66.512C70.6368 66.704 70.3908 66.98 70.1748 67.34V71.372C70.5588 71.936 71.0448 72.218 71.6328 72.218ZM84.0651 73.55C83.7171 73.79 83.3091 73.976 82.8411 74.108C82.3851 74.24 81.9291 74.306 81.4731 74.306C79.3851 74.294 78.3411 73.142 78.3411 70.85V66.422H76.9911V64.442H78.3411V62.372L81.1851 62.048V64.442H83.3811L83.0751 66.422H81.1851V70.814C81.1851 71.258 81.2571 71.576 81.4011 71.768C81.5451 71.96 81.7731 72.056 82.0851 72.056C82.4091 72.056 82.7511 71.954 83.1111 71.75L84.0651 73.55Z" fill="black"/>
</svg>
