<svg width="48" height="89" viewBox="0 0 48 89" fill="none" xmlns="http://www.w3.org/2000/svg">
<g clip-path="url(#clip0_479_24)">
<path d="M27.7557 0C30.9957 7.15869 16.1396 11.5796 14.7589 17.543C13.4932 23.0229 23.586 29.3906 23.5952 29.3906C22.0627 27.123 20.9351 25.2554 19.398 21.7266C16.7977 15.7588 35.2344 10.3579 27.7557 0ZM37.623 9.91406C37.623 9.91406 24.5893 10.7139 23.9266 18.668C23.6321 22.21 27.3553 24.0732 27.4611 26.6484C27.5486 28.7534 25.2521 30.5156 25.2521 30.5156C25.2521 30.5156 29.4309 29.7554 30.738 26.543C32.1877 22.979 27.9122 20.5708 28.3448 17.7187C28.759 14.9897 37.623 9.91406 37.623 9.91406ZM17.1521 28.3008C17.1521 28.3008 5.22296 28.1382 5.22296 31.3594C5.22296 34.7256 20.8385 34.9761 31.9898 32.9062C31.9898 32.9062 34.9536 30.9595 35.7452 30.2344C28.4368 31.6582 11.7766 31.8164 11.7766 30.5859C11.7766 29.4521 17.1521 28.3008 17.1521 28.3008ZM40.0898 28.3008C38.9208 28.3887 37.6598 28.8193 36.5184 29.6016C39.2061 29.0478 41.4889 30.6387 41.4889 32.4492C41.4889 36.5273 35.3034 40.3594 35.3034 40.3594C35.3034 40.3594 44.8761 39.3223 44.8761 32.625C44.8761 29.584 42.6625 28.1074 40.0898 28.3008ZM14.2802 34.5586C12.4485 34.5586 9.71478 35.9297 9.71478 37.2305C9.71478 39.8452 23.4848 41.8579 33.6834 38.0391L30.1489 35.9648C23.2363 38.0786 10.5064 37.3887 14.2802 34.5586ZM15.9739 40.4297C13.4656 40.4297 11.8134 41.8755 11.8134 42.9609C11.8134 46.3183 26.7938 46.6567 32.7261 43.2422L28.9707 40.957C24.5387 42.7456 13.415 43.0181 15.9739 40.4297ZM7.61615 43.4531C3.52933 43.374 0.878418 45.1274 0.878418 46.582C0.878418 54.3164 42.7039 53.9604 42.7039 46.0547C42.7039 44.7407 41.1161 44.1035 40.5316 43.8047C43.9511 51.3633 6.29069 50.7612 6.29069 46.3008C6.29069 45.2856 9.06126 44.3144 11.6293 44.7891L9.45705 43.5937C8.81734 43.5015 8.20063 43.4663 7.61615 43.4531ZM47.1221 48.6562C40.7617 54.4131 24.6446 56.5005 8.42615 52.9453C24.64 59.2822 47.0438 55.727 47.1221 48.6562Z" fill="black"/>
</g>
<path d="M10.608 81.11C10.608 82.106 10.428 82.928 10.068 83.576C9.72 84.224 9.252 84.728 8.664 85.088C8.088 85.46 7.398 85.778 6.594 86.042L5.802 83.954C6.33 83.75 6.726 83.516 6.99 83.252C7.254 82.988 7.428 82.682 7.512 82.334C7.608 81.986 7.656 81.542 7.656 81.002V70.526H10.608V81.11ZM20.4249 80.228C20.4249 80.588 20.4729 80.852 20.5689 81.02C20.6769 81.188 20.8449 81.314 21.0729 81.398L20.4789 83.252C19.8909 83.204 19.4109 83.078 19.0389 82.874C18.6669 82.658 18.3789 82.322 18.1749 81.866C17.5509 82.826 16.5909 83.306 15.2949 83.306C14.3469 83.306 13.5909 83.03 13.0269 82.478C12.4629 81.926 12.1809 81.206 12.1809 80.318C12.1809 79.274 12.5649 78.476 13.3329 77.924C14.1009 77.372 15.2109 77.096 16.6629 77.096H17.6349V76.682C17.6349 76.118 17.5149 75.734 17.2749 75.53C17.0349 75.314 16.6149 75.206 16.0149 75.206C15.7029 75.206 15.3249 75.254 14.8809 75.35C14.4369 75.434 13.9809 75.554 13.5129 75.71L12.8649 73.838C13.4649 73.61 14.0769 73.436 14.7009 73.316C15.3369 73.196 15.9249 73.136 16.4649 73.136C17.8329 73.136 18.8349 73.418 19.4709 73.982C20.1069 74.546 20.4249 75.392 20.4249 76.52V80.228ZM16.1229 81.272C16.7709 81.272 17.2749 80.966 17.6349 80.354V78.662H16.9329C16.2849 78.662 15.7989 78.776 15.4749 79.004C15.1629 79.232 15.0069 79.586 15.0069 80.066C15.0069 80.45 15.1029 80.75 15.2949 80.966C15.4989 81.17 15.7749 81.272 16.1229 81.272ZM30.6525 73.442L27.6465 83H24.2805L21.2025 73.442H24.2985L25.9905 80.84L27.7545 73.442H30.6525ZM38.8468 80.228C38.8468 80.588 38.8948 80.852 38.9908 81.02C39.0988 81.188 39.2668 81.314 39.4948 81.398L38.9008 83.252C38.3128 83.204 37.8328 83.078 37.4608 82.874C37.0888 82.658 36.8008 82.322 36.5968 81.866C35.9728 82.826 35.0128 83.306 33.7168 83.306C32.7688 83.306 32.0128 83.03 31.4488 82.478C30.8848 81.926 30.6028 81.206 30.6028 80.318C30.6028 79.274 30.9868 78.476 31.7548 77.924C32.5228 77.372 33.6328 77.096 35.0848 77.096H36.0568V76.682C36.0568 76.118 35.9368 75.734 35.6968 75.53C35.4568 75.314 35.0368 75.206 34.4368 75.206C34.1248 75.206 33.7468 75.254 33.3028 75.35C32.8588 75.434 32.4028 75.554 31.9348 75.71L31.2868 73.838C31.8868 73.61 32.4988 73.436 33.1228 73.316C33.7588 73.196 34.3468 73.136 34.8868 73.136C36.2548 73.136 37.2568 73.418 37.8928 73.982C38.5288 74.546 38.8468 75.392 38.8468 76.52V80.228ZM34.5448 81.272C35.1928 81.272 35.6968 80.966 36.0568 80.354V78.662H35.3548C34.7068 78.662 34.2208 78.776 33.8968 79.004C33.5848 79.232 33.4288 79.586 33.4288 80.066C33.4288 80.45 33.5248 80.75 33.7168 80.966C33.9208 81.17 34.1968 81.272 34.5448 81.272Z" fill="black"/>
<defs>
<clipPath id="clip0_479_24">
<rect width="48" height="57" fill="white"/>
</clipPath>
</defs>
</svg>
