<svg width="48" height="78" viewBox="0 0 48 78" fill="none" xmlns="http://www.w3.org/2000/svg">
<path d="M37.402 21.8905C37.1115 21.6969 36.7851 21.5637 36.442 21.4989C36.0555 21.4199 35.6618 21.3818 35.2673 21.3852H35.002C35.002 21.4989 34.9263 21.8021 34.8378 22.2947L34.4463 24.4673C34.4463 24.7705 34.3326 25.1747 34.2441 25.7305C34.1557 26.2863 34.1052 26.5263 34.1052 26.7284C34.5287 26.7266 34.9513 26.6886 35.3684 26.6147C35.7381 26.5484 36.0985 26.4381 36.442 26.2863C36.8969 26.0637 37.3011 25.7498 37.6294 25.3642C37.9435 24.9407 38.1475 24.4459 38.2231 23.9242C38.3174 23.5035 38.2867 23.0644 38.1347 22.661C37.9788 22.3326 37.7221 22.0627 37.402 21.8905ZM14.981 21.8905C14.69 21.6925 14.3643 21.5511 14.021 21.4736C13.6343 21.3959 13.2407 21.3578 12.8463 21.36H12.6315C12.6315 21.4736 12.5557 21.7768 12.4673 22.2694C12.3789 22.7621 12.2526 23.5326 12.0884 24.4421C12.0884 24.7452 11.962 25.1494 11.8736 25.7052C11.7852 26.261 11.7347 26.5642 11.6968 26.7536C12.1204 26.753 12.5431 26.715 12.9599 26.64C13.3296 26.5737 13.6901 26.4634 14.0336 26.3115C14.4885 26.0889 14.8927 25.775 15.221 25.3894C15.5444 24.9701 15.7534 24.4738 15.8273 23.9494C15.9176 23.5275 15.8825 23.0884 15.7263 22.6863C15.5686 22.3486 15.3076 22.0699 14.981 21.8905Z" fill="black"/>
<path d="M14.981 21.8905C14.69 21.6925 14.3643 21.5511 14.021 21.4736C13.6343 21.3959 13.2407 21.3578 12.8463 21.36H12.6315C12.6315 21.4736 12.5557 21.7768 12.4673 22.2694C12.3789 22.7621 12.2526 23.5326 12.0884 24.4421C12.0884 24.7452 11.962 25.1494 11.8736 25.7052C11.7852 26.261 11.7347 26.5642 11.6968 26.7536C12.1204 26.753 12.5431 26.715 12.9599 26.64C13.3296 26.5737 13.6901 26.4634 14.0336 26.3115C14.4885 26.0889 14.8927 25.775 15.221 25.3894C15.5444 24.9701 15.7534 24.4738 15.8273 23.9494C15.9176 23.5275 15.8825 23.0884 15.7263 22.6863C15.5686 22.3486 15.3076 22.0699 14.981 21.8905ZM37.402 21.8905C37.1115 21.6969 36.7851 21.5637 36.442 21.4989C36.0555 21.4199 35.6618 21.3818 35.2673 21.3852H35.002C35.002 21.4989 34.9263 21.8021 34.8378 22.2947L34.4463 24.4673C34.4463 24.7705 34.3326 25.1747 34.2441 25.7305C34.1557 26.2863 34.1052 26.5263 34.1052 26.7284C34.5287 26.7266 34.9513 26.6886 35.3684 26.6147C35.7381 26.5484 36.0985 26.4381 36.442 26.2863C36.8969 26.0637 37.3011 25.7498 37.6294 25.3642C37.9435 24.9407 38.1475 24.4459 38.2231 23.9242C38.3174 23.5035 38.2867 23.0644 38.1347 22.661C37.9788 22.3326 37.7221 22.0627 37.402 21.8905Z" fill="black"/>
<path d="M24.0002 0.947388C19.4128 0.947388 14.9284 2.30787 11.1143 4.85675C7.30021 7.40563 4.32769 11.0284 2.57275 15.2669C0.817805 19.5053 0.359272 24.169 1.25515 28.6681C2.15103 33.1671 4.36106 37.2995 7.60573 40.5424C10.8504 43.7853 14.9839 45.993 19.4835 46.8865C23.983 47.7799 28.6465 47.3188 32.884 45.5616C37.1215 43.8043 40.7426 40.8298 43.2894 37.0143C45.8362 33.1988 47.1943 28.7137 47.1918 24.1263C47.1884 17.9777 44.7435 12.0821 40.3946 7.73558C36.0457 3.38904 30.1488 0.947387 24.0002 0.947388ZM18.556 23.76C18.4296 24.6263 18.0718 25.4423 17.5202 26.1221C16.969 26.7634 16.2946 27.2874 15.537 27.6632C14.8921 27.9764 14.2081 28.2015 13.5033 28.3327C12.8217 28.4734 12.1277 28.5453 11.4318 28.5474L10.737 32.7032H7.97071C7.97071 32.4126 8.16018 31.5663 8.41281 30.1769C8.66544 28.7874 8.94334 27.2211 9.23386 25.5284C9.37281 24.7074 9.53702 23.76 9.71386 22.6737C9.8907 21.5874 10.0928 20.4632 10.2823 19.3263H11.7728C12.7355 19.3105 13.6981 19.3653 14.6528 19.4905C15.3822 19.5894 16.0905 19.807 16.7497 20.1348C17.4179 20.4525 17.9636 20.9805 18.3033 21.6379C18.6076 22.3014 18.696 23.0436 18.556 23.76ZM29.697 21.979C29.5707 22.7116 29.457 23.3179 29.3686 23.7979L29.1412 25.0611C29.0528 25.6169 28.9391 26.3242 28.8254 27.019C28.7118 27.7137 28.6107 28.2821 28.5602 28.6232H25.7939C25.7939 28.3705 25.9328 27.8021 26.1097 26.88C26.2865 25.9579 26.3875 25.3516 26.4381 25.0232C26.4886 24.6948 26.5518 24.379 26.6149 23.9874C26.6781 23.5958 26.7286 23.2548 26.7791 22.9769C26.8964 22.5582 26.8652 22.1119 26.6907 21.7137C26.592 21.5797 26.4589 21.4748 26.3054 21.4103C26.152 21.3459 25.9839 21.3241 25.8191 21.3474C25.4511 21.3634 25.0883 21.4402 24.7454 21.5748C24.3112 21.7285 23.889 21.9142 23.4823 22.1305L22.396 28.5853H19.617C19.6928 28.1558 19.8444 27.3221 20.0844 25.9705C20.3244 24.619 20.577 23.2169 20.8423 21.6505C20.9812 20.8295 21.1454 19.8821 21.3223 18.8211C21.4991 17.76 21.7012 16.5853 21.916 15.3348H24.6823L23.7981 20.2105C24.4201 19.8977 25.0664 19.6358 25.7307 19.4274C26.2904 19.2452 26.873 19.1432 27.4612 19.1242C27.8078 19.0967 28.1558 19.1523 28.4766 19.2863C28.7973 19.4203 29.0815 19.6289 29.3054 19.8948C29.5179 20.193 29.6629 20.5339 29.7305 20.8938C29.7981 21.2537 29.7867 21.6239 29.697 21.979ZM39.9412 26.1221C39.3976 26.7661 38.7267 27.2908 37.9707 27.6632C37.3214 27.9763 36.6332 28.2014 35.9244 28.3327C35.2471 28.4739 34.5573 28.5459 33.8654 28.5474L33.1707 32.7032H30.3918L30.8465 30.1769C31.0991 28.7748 31.377 27.2211 31.6675 25.5284C31.8065 24.7074 31.9707 23.76 32.1475 22.6737C32.3244 21.5874 32.5139 20.4632 32.7033 19.3263H34.2065C35.1692 19.3113 36.1317 19.3662 37.0865 19.4905C37.8155 19.5912 38.5236 19.8087 39.1833 20.1348C39.8507 20.4493 40.3934 20.9785 40.7244 21.6379C41.0444 22.3057 41.1376 23.0597 40.9897 23.7853C40.8547 24.6437 40.4927 25.4505 39.9412 26.1221Z" fill="black"/>
<path d="M15.7517 23.9242C15.6814 24.4474 15.4769 24.9435 15.158 25.3642C14.8297 25.7498 14.4255 26.0637 13.9706 26.2863C13.6271 26.4381 13.2667 26.5484 12.8969 26.6147C12.4801 26.6897 12.0574 26.7278 11.6338 26.7284C11.6338 26.5389 11.7348 26.1852 11.8106 25.6799C11.8864 25.1747 11.9622 24.7705 12.0254 24.4168C12.1896 23.4568 12.3159 22.7242 12.4043 22.2442C12.4927 21.7642 12.5559 21.4484 12.5685 21.3347H12.8464C13.2408 21.3325 13.6345 21.3706 14.0212 21.4484C14.3627 21.5181 14.6883 21.6509 14.9812 21.84C15.2856 22.0415 15.5196 22.3329 15.6506 22.6736C15.8044 23.072 15.8395 23.5063 15.7517 23.9242ZM38.1727 23.9242C38.0971 24.4459 37.8931 24.9407 37.5791 25.3642C37.2508 25.7498 36.8466 26.0637 36.3917 26.2863C36.0482 26.4381 35.6877 26.5484 35.318 26.6147C34.901 26.6886 34.4784 26.7266 34.0548 26.7284C34.0548 26.5389 34.1433 26.1852 34.2317 25.6799C34.3201 25.1747 34.3833 24.7705 34.4338 24.4168C34.598 23.4568 34.7243 22.7242 34.8254 22.2442C34.9264 21.7642 34.9643 21.4484 34.9896 21.3347H35.2548C35.6493 21.3313 36.0431 21.3694 36.4296 21.4484C36.7726 21.5132 37.0991 21.6463 37.3896 21.84C37.701 22.0368 37.9404 22.3293 38.0717 22.6736C38.2254 23.072 38.2605 23.5063 38.1727 23.9242Z" fill="black"/>
<path d="M12.202 61.526C13.846 61.526 15.124 61.868 16.036 62.552C16.948 63.236 17.404 64.25 17.404 65.594C17.404 66.998 16.954 68.06 16.054 68.78C15.166 69.488 13.972 69.842 12.472 69.842H11.122V74H8.17V61.526H12.202ZM12.22 67.718C12.916 67.718 13.444 67.556 13.804 67.232C14.176 66.896 14.362 66.35 14.362 65.594C14.362 64.286 13.63 63.632 12.166 63.632H11.122V67.718H12.22ZM25.659 74V68.654H21.915V74H18.963V61.526H21.915V66.35H25.659V61.526H28.611V74H25.659ZM34.9833 61.526C36.6273 61.526 37.9053 61.868 38.8173 62.552C39.7293 63.236 40.1853 64.25 40.1853 65.594C40.1853 66.998 39.7353 68.06 38.8353 68.78C37.9473 69.488 36.7533 69.842 35.2533 69.842H33.9033V74H30.9513V61.526H34.9833ZM35.0013 67.718C35.6973 67.718 36.2253 67.556 36.5853 67.232C36.9573 66.896 37.1433 66.35 37.1433 65.594C37.1433 64.286 36.4113 63.632 34.9473 63.632H33.9033V67.718H35.0013Z" fill="black"/>
</svg>
