<svg width="97" height="78" viewBox="0 0 97 78" fill="none" xmlns="http://www.w3.org/2000/svg">
<path d="M49 48C35.748 48 25 43.971 25 39V33.936C25 38.91 35.748 42 49 42C62.252 42 73 38.91 73 33.936V39C73 43.971 62.252 48 49 48ZM49 39C35.748 39 25 34.971 25 30V24.936C25 29.91 35.748 33 49 33C62.252 33 73 29.91 73 24.936V30C73 34.971 62.252 39 49 39ZM49 30C35.748 30 25 25.971 25 21V15.936C25 20.91 35.748 24 49 24C62.252 24 73 20.91 73 15.936V21C73 25.971 62.252 30 49 30ZM49 21C35.748 21 25 16.971 25 12V9C25 4.029 35.748 0 49 0C62.252 0 73 4.029 73 9V12C73 16.971 62.252 21 49 21Z" fill="black"/>
<path d="M5.184 61.22C6.12 61.22 6.93 61.352 7.614 61.616C8.31 61.88 8.94 62.282 9.504 62.822L8.136 64.424C7.284 63.728 6.372 63.38 5.4 63.38C4.884 63.38 4.476 63.488 4.176 63.704C3.876 63.908 3.726 64.208 3.726 64.604C3.726 64.88 3.792 65.108 3.924 65.288C4.056 65.456 4.29 65.618 4.626 65.774C4.962 65.93 5.466 66.116 6.138 66.332C7.41 66.74 8.346 67.244 8.946 67.844C9.546 68.432 9.846 69.272 9.846 70.364C9.846 71.144 9.648 71.834 9.252 72.434C8.856 73.022 8.286 73.484 7.542 73.82C6.798 74.144 5.916 74.306 4.896 74.306C3.876 74.306 2.97 74.144 2.178 73.82C1.398 73.496 0.726 73.064 0.162 72.524L1.656 70.886C2.136 71.294 2.628 71.6 3.132 71.804C3.648 72.008 4.206 72.11 4.806 72.11C5.418 72.11 5.898 71.978 6.246 71.714C6.606 71.438 6.786 71.06 6.786 70.58C6.786 70.268 6.72 70.01 6.588 69.806C6.456 69.59 6.228 69.398 5.904 69.23C5.58 69.062 5.112 68.882 4.5 68.69C3.12 68.27 2.136 67.754 1.548 67.142C0.972 66.53 0.684 65.756 0.684 64.82C0.684 64.1 0.876 63.47 1.26 62.93C1.644 62.378 2.178 61.958 2.862 61.67C3.546 61.37 4.32 61.22 5.184 61.22ZM19.2108 73.19C19.9908 73.19 20.6688 73.286 21.2448 73.478C21.8208 73.658 22.3728 73.94 22.9008 74.324L21.1188 76.646C20.4348 75.878 19.7328 75.284 19.0128 74.864C18.2928 74.456 17.3988 74.252 16.3308 74.252C15.2148 74.252 14.2488 74 13.4328 73.496C12.6168 72.98 11.9868 72.236 11.5428 71.264C11.1108 70.292 10.8948 69.122 10.8948 67.754C10.8948 66.41 11.1168 65.246 11.5608 64.262C12.0168 63.278 12.6648 62.528 13.5048 62.012C14.3448 61.484 15.3468 61.22 16.5108 61.22C18.2868 61.22 19.6668 61.79 20.6508 62.93C21.6468 64.07 22.1448 65.678 22.1448 67.754C22.1448 70.298 21.1668 72.11 19.2108 73.19ZM13.9908 67.754C13.9908 69.29 14.2008 70.406 14.6208 71.102C15.0408 71.798 15.6708 72.146 16.5108 72.146C17.3748 72.146 18.0108 71.804 18.4188 71.12C18.8388 70.424 19.0488 69.302 19.0488 67.754C19.0488 66.206 18.8388 65.09 18.4188 64.406C17.9988 63.722 17.3628 63.38 16.5108 63.38C15.6588 63.38 15.0228 63.728 14.6028 64.424C14.1948 65.108 13.9908 66.218 13.9908 67.754ZM26.8505 61.526V71.66H31.7105L31.4045 74H23.8985V61.526H26.8505ZM37.1675 59.312L39.6515 59.87L35.4215 76.016L32.9195 75.44L37.1675 59.312ZM54.511 74H51.613L51.397 69.122C51.337 67.958 51.307 66.92 51.307 66.008C51.307 65.312 51.325 64.652 51.361 64.028L49.435 72.686H46.645L44.593 64.028C44.665 65.072 44.701 66.056 44.701 66.98C44.701 67.676 44.683 68.402 44.647 69.158L44.431 74H41.551L42.487 61.526H46.213L48.085 69.986L49.831 61.526H53.575L54.511 74ZM61.4974 74.018C61.1134 75.254 60.4834 76.202 59.6074 76.862C58.7434 77.534 57.5794 77.912 56.1154 77.996L55.8094 75.998C56.7214 75.878 57.3934 75.674 57.8254 75.386C58.2694 75.098 58.6234 74.636 58.8874 74H57.9154L54.9994 64.442H58.0234L59.7334 72.182L61.6054 64.442H64.5394L61.4974 74.018ZM69.6078 61.22C70.5438 61.22 71.3538 61.352 72.0378 61.616C72.7338 61.88 73.3638 62.282 73.9278 62.822L72.5598 64.424C71.7078 63.728 70.7958 63.38 69.8238 63.38C69.3078 63.38 68.8998 63.488 68.5998 63.704C68.2998 63.908 68.1498 64.208 68.1498 64.604C68.1498 64.88 68.2158 65.108 68.3478 65.288C68.4798 65.456 68.7138 65.618 69.0498 65.774C69.3858 65.93 69.8898 66.116 70.5618 66.332C71.8338 66.74 72.7698 67.244 73.3698 67.844C73.9698 68.432 74.2698 69.272 74.2698 70.364C74.2698 71.144 74.0718 71.834 73.6758 72.434C73.2798 73.022 72.7098 73.484 71.9658 73.82C71.2218 74.144 70.3398 74.306 69.3198 74.306C68.2998 74.306 67.3938 74.144 66.6018 73.82C65.8218 73.496 65.1498 73.064 64.5858 72.524L66.0798 70.886C66.5598 71.294 67.0518 71.6 67.5558 71.804C68.0718 72.008 68.6298 72.11 69.2298 72.11C69.8418 72.11 70.3218 71.978 70.6698 71.714C71.0298 71.438 71.2098 71.06 71.2098 70.58C71.2098 70.268 71.1438 70.01 71.0118 69.806C70.8798 69.59 70.6518 69.398 70.3278 69.23C70.0038 69.062 69.5358 68.882 68.9238 68.69C67.5438 68.27 66.5598 67.754 65.9718 67.142C65.3958 66.53 65.1078 65.756 65.1078 64.82C65.1078 64.1 65.2998 63.47 65.6838 62.93C66.0678 62.378 66.6018 61.958 67.2858 61.67C67.9698 61.37 68.7438 61.22 69.6078 61.22ZM83.6346 73.19C84.4146 73.19 85.0926 73.286 85.6686 73.478C86.2446 73.658 86.7966 73.94 87.3246 74.324L85.5426 76.646C84.8586 75.878 84.1566 75.284 83.4366 74.864C82.7166 74.456 81.8226 74.252 80.7546 74.252C79.6386 74.252 78.6726 74 77.8566 73.496C77.0406 72.98 76.4106 72.236 75.9666 71.264C75.5346 70.292 75.3186 69.122 75.3186 67.754C75.3186 66.41 75.5406 65.246 75.9846 64.262C76.4406 63.278 77.0886 62.528 77.9286 62.012C78.7686 61.484 79.7706 61.22 80.9346 61.22C82.7106 61.22 84.0906 61.79 85.0746 62.93C86.0706 64.07 86.5686 65.678 86.5686 67.754C86.5686 70.298 85.5906 72.11 83.6346 73.19ZM78.4146 67.754C78.4146 69.29 78.6246 70.406 79.0446 71.102C79.4646 71.798 80.0946 72.146 80.9346 72.146C81.7986 72.146 82.4346 71.804 82.8426 71.12C83.2626 70.424 83.4726 69.302 83.4726 67.754C83.4726 66.206 83.2626 65.09 82.8426 64.406C82.4226 63.722 81.7866 63.38 80.9346 63.38C80.0826 63.38 79.4466 63.728 79.0266 64.424C78.6186 65.108 78.4146 66.218 78.4146 67.754ZM91.2743 61.526V71.66H96.1343L95.8283 74H88.3223V61.526H91.2743Z" fill="black"/>
</svg>
